<svg xmlns="http://www.w3.org/2000/svg" width="23" height="21" viewBox="0 0 23 21" fill="none">
  <g opacity="0.6">
    <path d="M15.2759 19.354V17.354C15.2759 16.2931 14.8545 15.2757 14.1043 14.5256C13.3542 13.7754 12.3367 13.354 11.2759 13.354H5.27588C4.21501 13.354 3.1976 13.7754 2.44745 14.5256C1.69731 15.2757 1.27588 16.2931 1.27588 17.354V19.354" stroke="#111827" stroke-width="2" stroke-linecap="round" stroke-linejoin="round"/>
    <path d="M8.27588 9.354C10.485 9.354 12.2759 7.56314 12.2759 5.354C12.2759 3.14486 10.485 1.354 8.27588 1.354C6.06674 1.354 4.27588 3.14486 4.27588 5.354C4.27588 7.56314 6.06674 9.354 8.27588 9.354Z" stroke="#111827" stroke-width="2" stroke-linecap="round" stroke-linejoin="round"/>
    <path d="M21.2759 19.3539V17.3539C21.2752 16.4676 20.9802 15.6067 20.4372 14.9062C19.8943 14.2057 19.134 13.7055 18.2759 13.4839" stroke="#111827" stroke-width="2" stroke-linecap="round" stroke-linejoin="round"/>
    <path d="M15.2759 1.48389C16.1363 1.70419 16.8989 2.20459 17.4435 2.9062C17.9881 3.60781 18.2837 4.47072 18.2837 5.35889C18.2837 6.24706 17.9881 7.10997 17.4435 7.81158C16.8989 8.51319 16.1363 9.01359 15.2759 9.23389" stroke="#111827" stroke-width="2" stroke-linecap="round" stroke-linejoin="round"/>
  </g>
</svg>