<svg xmlns="http://www.w3.org/2000/svg" width="21" height="22" viewBox="0 0 21 22" fill="none">
  <path d="M10.5 0.419434C4.70653 0.419434 0 5.12596 0 10.9194C0 12.7816 0.510705 14.5195 1.36243 16.0366L0.0169412 20.8399C-0.00455423 20.9167 -0.00552547 20.9979 0.0141244 21.0752C0.0337742 21.1526 0.0733586 21.2234 0.128931 21.2807C0.184503 21.338 0.254121 21.3797 0.330844 21.4017C0.407567 21.4237 0.488714 21.4252 0.566194 21.4061L5.57456 20.1649C7.04624 20.9506 8.71618 21.4194 10.5 21.4194C16.2935 21.4194 21 16.7129 21 10.9194C21 5.12596 16.2935 0.419434 10.5 0.419434ZM10.5 1.33248C15.8 1.33248 20.087 5.61943 20.087 10.9194C20.087 16.2194 15.8 20.5064 10.5 20.5064C8.80084 20.5064 7.20945 20.0634 5.826 19.2893C5.72482 19.2328 5.60592 19.2168 5.49342 19.2447L1.10742 20.3316L2.2835 16.1356C2.30033 16.0763 2.30498 16.0142 2.29716 15.953C2.28935 15.8919 2.26923 15.8329 2.23803 15.7798C1.39727 14.3541 0.913043 12.6954 0.913043 10.9194C0.913043 5.61943 5.2 1.33248 10.5 1.33248ZM6.68466 5.44117C6.39201 5.44117 5.97406 5.55005 5.63073 5.91999C5.42451 6.14218 4.56522 6.97943 4.56522 8.45136C4.56522 9.98597 5.62955 11.3101 5.75824 11.4803H5.75913V11.4812C5.74692 11.4651 5.92247 11.7193 6.1568 12.0242C6.39113 12.329 6.71882 12.7294 7.13048 13.1628C7.9538 14.0297 9.11139 15.0315 10.5481 15.6443C11.2098 15.926 11.7318 16.0961 12.1273 16.2203C12.8601 16.4504 13.5277 16.4154 14.0291 16.3415C14.4045 16.2862 14.8173 16.106 15.2257 15.8476C15.6342 15.5891 16.0345 15.2677 16.211 14.7794C16.3374 14.4293 16.4017 14.1058 16.425 13.8396C16.4366 13.7065 16.4381 13.589 16.4294 13.4802C16.4208 13.3715 16.43 13.2882 16.3287 13.1218C16.1161 12.7728 15.8754 12.7637 15.6243 12.6394C15.4847 12.5704 15.0874 12.3763 14.6889 12.1865C14.2909 11.9968 13.9462 11.8288 13.734 11.7531C13.5999 11.7049 13.4361 11.6354 13.1999 11.6622C12.9637 11.6889 12.7303 11.8594 12.5945 12.0607C12.4657 12.2516 11.9474 12.8635 11.7893 13.0433C11.7872 13.0421 11.8009 13.0484 11.7385 13.0175C11.543 12.9207 11.304 12.8385 10.9503 12.6519C10.5966 12.4653 10.1541 12.1898 9.66988 11.7629V11.762C8.94921 11.1276 8.44441 10.331 8.28516 10.0635C8.29588 10.0507 8.28388 10.0661 8.30656 10.0438L8.30745 10.0429C8.4702 9.88264 8.61445 9.69117 8.73633 9.55076C8.90914 9.35168 8.9854 9.17618 9.06802 9.01221C9.23267 8.68542 9.14099 8.32582 9.04573 8.13661V8.13572C9.05231 8.14881 8.9942 8.02059 8.9316 7.87269C8.86882 7.72436 8.7888 7.53206 8.70334 7.327C8.53241 6.91688 8.34158 6.45689 8.22809 6.18748V6.18659C8.0944 5.86925 7.91353 5.64063 7.67706 5.53034C7.44058 5.42004 7.23166 5.4514 7.22321 5.45098H7.22232C7.05357 5.4432 6.86839 5.44117 6.68466 5.44117ZM6.68466 6.35422C6.86066 6.35422 7.03418 6.35636 7.17952 6.36313C7.32903 6.37058 7.31973 6.3712 7.29097 6.35778C7.26176 6.34416 7.3014 6.33974 7.38638 6.54146C7.4975 6.80526 7.68927 7.26692 7.86073 7.67831C7.94646 7.884 8.0267 8.07705 8.09078 8.22845C8.15486 8.37986 8.18958 8.46439 8.22987 8.54499V8.54588L8.23077 8.54677C8.27027 8.62472 8.26678 8.57481 8.25306 8.60205C8.15672 8.79325 8.14365 8.8402 8.0462 8.95247C7.89782 9.1234 7.74647 9.31403 7.66636 9.39294C7.59627 9.46179 7.4698 9.56906 7.39084 9.77902C7.31175 9.98931 7.34866 10.2778 7.47554 10.4932C7.64447 10.78 8.20114 11.6861 9.06624 12.4477C9.61104 12.928 10.1186 13.2458 10.5241 13.4597C10.9295 13.6736 11.2598 13.7985 11.3337 13.8351C11.5092 13.922 11.701 13.9894 11.924 13.9626C12.147 13.9358 12.3392 13.8005 12.4616 13.6621L12.4625 13.6612C12.6254 13.4766 13.1094 12.9239 13.3417 12.5832C13.3515 12.5867 13.3483 12.584 13.4255 12.6118V12.6127H13.4264C13.4616 12.6252 13.903 12.8228 14.2966 13.0103C14.6902 13.1979 15.0897 13.3928 15.2195 13.4571C15.4068 13.5498 15.4953 13.6101 15.5182 13.6104C15.5197 13.6506 15.5213 13.6941 15.5155 13.7602C15.4995 13.9436 15.4505 14.1974 15.3523 14.4691C15.3042 14.6021 15.0538 14.8764 14.738 15.0763C14.4222 15.2761 14.0377 15.4173 13.8954 15.4383C13.4673 15.5014 12.9591 15.5244 12.401 15.3491C12.014 15.2276 11.5314 15.0704 10.9066 14.8043C9.63937 14.2639 8.56234 13.3443 7.79297 12.5342C7.40829 12.1292 7.10008 11.7521 6.88082 11.4669C6.66196 11.1822 6.56639 11.034 6.48671 10.9292L6.48582 10.9284C6.34438 10.7413 5.47826 9.53656 5.47826 8.45136C5.47826 7.30286 6.01171 6.85248 6.30036 6.54146C6.45189 6.37818 6.61756 6.35422 6.68466 6.35422Z" fill="#111827"/>
</svg>