<svg width="32" height="26" viewBox="0 0 32 26" fill="none" xmlns="http://www.w3.org/2000/svg">
<path d="M29.8636 6.32989L26.7829 9.4106L24.4724 3.71128C24.2545 3.12801 23.8649 2.62445 23.3551 2.26697C22.8453 1.9095 22.2392 1.7149 21.6165 1.70882H10.4551C9.82744 1.6944 9.21033 1.87212 8.68644 2.21816C8.16256 2.56421 7.75691 3.06206 7.52383 3.64505L5.21792 9.4106L2.13721 6.32989" stroke="#4B5563" stroke-width="2.31053" stroke-linecap="round" stroke-linejoin="round"/>
<path d="M8.29858 15.5719H8.31399" stroke="#4B5563" stroke-width="2.31053" stroke-linecap="round" stroke-linejoin="round"/>
<path d="M23.7021 15.5719H23.7176" stroke="#4B5563" stroke-width="2.31053" stroke-linecap="round" stroke-linejoin="round"/>
<path d="M26.7829 9.41052H5.21792C3.51649 9.41052 2.13721 10.7898 2.13721 12.4912V18.6527C2.13721 20.3541 3.51649 21.7334 5.21792 21.7334H26.7829C28.4843 21.7334 29.8636 20.3541 29.8636 18.6527V12.4912C29.8636 10.7898 28.4843 9.41052 26.7829 9.41052Z" stroke="#4B5563" stroke-width="2.31053" stroke-linecap="round" stroke-linejoin="round"/>
<path d="M5.21777 21.7334V24.8141" stroke="#4B5563" stroke-width="2.31053" stroke-linecap="round" stroke-linejoin="round"/>
<path d="M26.783 21.7334V24.8141" stroke="#4B5563" stroke-width="2.31053" stroke-linecap="round" stroke-linejoin="round"/>
</svg>
