<svg width="22" height="23" viewBox="0 0 22 23" fill="none" xmlns="http://www.w3.org/2000/svg">
<path d="M20.8881 16.4562V19.4562C20.8892 19.7347 20.8322 20.0104 20.7206 20.2656C20.6091 20.5208 20.4454 20.7498 20.2402 20.9381C20.035 21.1264 19.7927 21.2697 19.5289 21.3589C19.265 21.4482 18.9855 21.4813 18.7081 21.4562C15.631 21.1219 12.6751 20.0704 10.0781 18.3862C7.66194 16.8509 5.61345 14.8024 4.07812 12.3862C2.38809 9.77743 1.33636 6.80722 1.00812 3.71623C0.983127 3.4397 1.01599 3.16099 1.10462 2.89785C1.19324 2.63472 1.33569 2.39292 1.52288 2.18785C1.71008 1.98278 1.93792 1.81894 2.19191 1.70675C2.44589 1.59456 2.72046 1.53649 2.99812 1.53623H5.99812C6.48342 1.53145 6.95391 1.70331 7.32188 2.01976C7.68985 2.33622 7.93019 2.77568 7.99812 3.25623C8.12474 4.2163 8.35957 5.15896 8.69812 6.06623C8.83266 6.42415 8.86178 6.81314 8.78202 7.18711C8.70227 7.56108 8.51698 7.90434 8.24812 8.17623L6.97812 9.44623C8.40167 11.9498 10.4746 14.0227 12.9781 15.4462L14.2481 14.1762C14.52 13.9074 14.8633 13.7221 15.2372 13.6423C15.6112 13.5626 16.0002 13.5917 16.3581 13.7262C17.2654 14.0648 18.2081 14.2996 19.1681 14.4262C19.6539 14.4948 20.0975 14.7394 20.4146 15.1137C20.7318 15.488 20.9003 15.9658 20.8881 16.4562Z" stroke="#F9FAFB" stroke-width="1.5" stroke-linecap="round" stroke-linejoin="round"/>
</svg>
