<svg width="34" height="28" viewBox="0 0 34 28" fill="none" xmlns="http://www.w3.org/2000/svg">
<path d="M1.59668 26.3537V14.0309C1.59668 13.2139 1.92125 12.4303 2.499 11.8525C3.07674 11.2748 3.86033 10.9502 4.67739 10.9502H29.3231C30.1401 10.9502 30.9237 11.2748 31.5015 11.8525C32.0792 12.4303 32.4038 13.2139 32.4038 14.0309V26.3537" stroke="#4B5563" stroke-width="2.31053" stroke-linecap="round" stroke-linejoin="round"/>
<path d="M4.67725 10.9501V4.78872C4.67725 3.97166 5.00182 3.18807 5.57957 2.61033C6.15731 2.03258 6.9409 1.70801 7.75796 1.70801H26.2422C27.0593 1.70801 27.8429 2.03258 28.4206 2.61033C28.9984 3.18807 29.3229 3.97166 29.3229 4.78872V10.9501" stroke="#4B5563" stroke-width="2.31053" stroke-linecap="round" stroke-linejoin="round"/>
<path d="M17.0002 1.70801V10.9501" stroke="#4B5563" stroke-width="2.31053" stroke-linecap="round" stroke-linejoin="round"/>
<path d="M1.59668 23.2729H32.4038" stroke="#4B5563" stroke-width="2.31053" stroke-linecap="round" stroke-linejoin="round"/>
</svg>
