<svg width="26" height="26" viewBox="0 0 26 26" fill="none" xmlns="http://www.w3.org/2000/svg">
<mask id="path-1-inside-1_178_582" fill="white">
<path d="M6.46939 21.5028H9.5501V15.6371H11.0905V11.6692C11.0905 11.0191 10.8676 10.4713 10.4219 10.0256C9.97626 9.57994 9.42892 9.35762 8.77992 9.35864H7.23957C6.58954 9.35864 6.04168 9.58097 5.59601 10.0256C5.15136 10.4713 4.92903 11.0191 4.92903 11.6692V15.6371H6.46939V21.5028ZM8.00974 7.93536C8.4698 7.93536 8.85591 7.77875 9.16809 7.46555C9.48027 7.15234 9.63687 6.76571 9.6379 6.30566C9.63893 5.84561 9.48232 5.45949 9.16809 5.14731C8.85386 4.83513 8.46723 4.67853 8.0082 4.6775C7.54918 4.67648 7.16306 4.83308 6.84985 5.14731C6.53665 5.46154 6.38005 5.84766 6.38005 6.30566C6.38005 6.76674 6.53665 7.15337 6.84985 7.46555C7.16306 7.77772 7.54918 7.93433 8.0082 7.93536M15.445 10.7203H20.3619L17.9034 6.78009L15.445 10.7203ZM17.9034 19.2816L20.3619 15.3414H15.445L17.9034 19.2816ZM2.97432 25.3537C2.26473 25.3537 1.67272 25.1165 1.19829 24.642C0.723862 24.1676 0.486134 23.5751 0.485107 22.8645V3.19722C0.485107 2.48763 0.722835 1.89562 1.19829 1.42119C1.67375 0.946763 2.26576 0.709035 2.97432 0.708008H22.6431C23.3517 0.708008 23.9437 0.945736 24.4191 1.42119C24.8946 1.89665 25.1318 2.48866 25.1308 3.19722V22.866C25.1308 23.5746 24.8936 24.1666 24.4191 24.642C23.9447 25.1175 23.3522 25.3547 22.6416 25.3537H2.97432ZM2.97432 23.8133H22.6431C22.9194 23.8133 23.1463 23.7245 23.324 23.5469C23.5016 23.3692 23.5904 23.1423 23.5904 22.866V3.19568C23.5904 2.91944 23.5016 2.6925 23.324 2.51484C23.1463 2.33719 22.9194 2.24836 22.6431 2.24836H2.97278C2.69654 2.24836 2.4696 2.33719 2.29194 2.51484C2.11429 2.6925 2.02546 2.91996 2.02546 3.19722V22.866C2.02546 23.1423 2.11429 23.3692 2.29194 23.5469C2.4696 23.7245 2.69706 23.8133 2.97432 23.8133Z"/>
</mask>
<path d="M6.46939 21.5028H9.5501V15.6371H11.0905V11.6692C11.0905 11.0191 10.8676 10.4713 10.4219 10.0256C9.97626 9.57994 9.42892 9.35762 8.77992 9.35864H7.23957C6.58954 9.35864 6.04168 9.58097 5.59601 10.0256C5.15136 10.4713 4.92903 11.0191 4.92903 11.6692V15.6371H6.46939V21.5028ZM8.00974 7.93536C8.4698 7.93536 8.85591 7.77875 9.16809 7.46555C9.48027 7.15234 9.63687 6.76571 9.6379 6.30566C9.63893 5.84561 9.48232 5.45949 9.16809 5.14731C8.85386 4.83513 8.46723 4.67853 8.0082 4.6775C7.54918 4.67648 7.16306 4.83308 6.84985 5.14731C6.53665 5.46154 6.38005 5.84766 6.38005 6.30566C6.38005 6.76674 6.53665 7.15337 6.84985 7.46555C7.16306 7.77772 7.54918 7.93433 8.0082 7.93536M15.445 10.7203H20.3619L17.9034 6.78009L15.445 10.7203ZM17.9034 19.2816L20.3619 15.3414H15.445L17.9034 19.2816ZM2.97432 25.3537C2.26473 25.3537 1.67272 25.1165 1.19829 24.642C0.723862 24.1676 0.486134 23.5751 0.485107 22.8645V3.19722C0.485107 2.48763 0.722835 1.89562 1.19829 1.42119C1.67375 0.946763 2.26576 0.709035 2.97432 0.708008H22.6431C23.3517 0.708008 23.9437 0.945736 24.4191 1.42119C24.8946 1.89665 25.1318 2.48866 25.1308 3.19722V22.866C25.1308 23.5746 24.8936 24.1666 24.4191 24.642C23.9447 25.1175 23.3522 25.3547 22.6416 25.3537H2.97432ZM2.97432 23.8133H22.6431C22.9194 23.8133 23.1463 23.7245 23.324 23.5469C23.5016 23.3692 23.5904 23.1423 23.5904 22.866V3.19568C23.5904 2.91944 23.5016 2.6925 23.324 2.51484C23.1463 2.33719 22.9194 2.24836 22.6431 2.24836H2.97278C2.69654 2.24836 2.4696 2.33719 2.29194 2.51484C2.11429 2.6925 2.02546 2.91996 2.02546 3.19722V22.866C2.02546 23.1423 2.11429 23.3692 2.29194 23.5469C2.4696 23.7245 2.69706 23.8133 2.97432 23.8133Z" fill="#F9FAFB"/>
<path d="M2.79564 23.8133V2.24836H1.25529V23.8133H2.79564ZM6.46939 21.5028H4.92903V23.0432H6.46939V21.5028ZM9.5501 21.5028V23.0432H11.0905V21.5028H9.5501ZM9.5501 15.6371V14.0968H8.00974V15.6371H9.5501ZM11.0905 15.6371V17.1775H12.6308V15.6371H11.0905ZM8.77992 9.35864V10.899L8.78236 10.899L8.77992 9.35864ZM5.59601 10.0256L4.50806 8.93516L4.50555 8.93768L5.59601 10.0256ZM4.92903 15.6371H3.38868V17.1775H4.92903V15.6371ZM6.46939 15.6371H8.00974V14.0968H6.46939V15.6371ZM15.445 10.7203L14.1382 9.90494L12.6684 12.2607H15.445V10.7203ZM20.3619 10.7203V12.2607H23.1385L21.6687 9.90494L20.3619 10.7203ZM17.9034 6.78009L19.2103 5.96471L17.9034 3.87015L16.5966 5.96471L17.9034 6.78009ZM17.9034 19.2816L16.5966 20.097L17.9034 22.1916L19.2103 20.097L17.9034 19.2816ZM20.3619 15.3414L21.6687 16.1568L23.1385 13.801H20.3619V15.3414ZM15.445 15.3414V13.801H12.6684L14.1382 16.1568L15.445 15.3414ZM0.485107 22.8645H-1.05525L-1.05525 22.8667L0.485107 22.8645ZM2.97432 0.708008V-0.832349L2.97209 -0.832346L2.97432 0.708008ZM25.1308 3.19722L23.5904 3.19499V3.19722H25.1308ZM22.6416 25.3537L22.6438 23.8133H22.6416V25.3537ZM2.97432 23.8133V22.273V23.8133ZM23.5904 22.866H22.0501H23.5904ZM6.46939 23.0432H9.5501V19.9624H6.46939V23.0432ZM11.0905 21.5028V15.6371H8.00974V21.5028H11.0905ZM9.5501 17.1775H11.0905V14.0968H9.5501V17.1775ZM12.6308 15.6371V11.6692H9.5501V15.6371H12.6308ZM12.6308 11.6692C12.6308 10.6249 12.2556 9.68093 11.5111 8.93642L9.33274 11.1148C9.47958 11.2616 9.5501 11.4134 9.5501 11.6692H12.6308ZM11.5111 8.93642C10.7665 8.19179 9.82225 7.81664 8.77748 7.81829L8.78236 10.899C9.0356 10.8986 9.18602 10.9681 9.33274 11.1148L11.5111 8.93642ZM8.77992 7.81829H7.23957V10.899H8.77992V7.81829ZM7.23957 7.81829C6.19645 7.81829 5.25284 8.19211 4.50807 8.93517L6.68394 11.1161C6.83052 10.9698 6.98262 10.899 7.23957 10.899V7.81829ZM4.50555 8.93768C3.7625 9.68245 3.38868 10.6261 3.38868 11.6692H6.46939C6.46939 11.4122 6.54022 11.2601 6.68646 11.1136L4.50555 8.93768ZM3.38868 11.6692V15.6371H6.46939V11.6692H3.38868ZM4.92903 17.1775H6.46939V14.0968H4.92903V17.1775ZM4.92903 15.6371V21.5028H8.00974V15.6371H4.92903ZM8.00974 9.47571C8.86077 9.47571 9.64512 9.16892 10.2591 8.55295L8.07711 6.37814C8.06616 6.38913 8.06038 6.39297 8.06024 6.39306C8.06001 6.39322 8.06054 6.39285 8.06173 6.39221C8.06293 6.39158 8.06423 6.39097 8.06543 6.39048C8.06834 6.38931 8.06748 6.39009 8.0606 6.39136C8.05341 6.39269 8.03716 6.395 8.00974 6.395V9.47571ZM10.2591 8.55295C10.8708 7.93918 11.1764 7.15734 11.1783 6.3091L8.09755 6.30222C8.09749 6.33012 8.09511 6.34702 8.09362 6.355C8.09219 6.36268 8.09118 6.3644 8.09199 6.36239C8.09284 6.36029 8.09372 6.35897 8.09328 6.35962C8.09272 6.36046 8.08843 6.36678 8.07711 6.37814L10.2591 8.55295ZM11.1783 6.3091C11.1802 5.45535 10.8722 4.66902 10.2537 4.05455L8.08247 6.24007C8.08809 6.24566 8.09176 6.24981 8.09392 6.25242C8.09608 6.25501 8.09699 6.25636 8.09705 6.25645C8.09711 6.25653 8.09663 6.25582 8.09587 6.25441C8.09512 6.25299 8.0944 6.25144 8.0938 6.24997C8.09239 6.24651 8.093 6.24676 8.09415 6.25302C8.09536 6.2596 8.09761 6.27528 8.09755 6.30222L11.1783 6.3091ZM10.2537 4.05455C9.6403 3.44515 8.85984 3.13905 8.01165 3.13715L8.00476 6.21785C8.0322 6.21792 8.0488 6.22026 8.05664 6.22172C8.06417 6.22312 8.06596 6.22414 8.06417 6.22341C8.06229 6.22265 8.06134 6.22195 8.06246 6.2227C8.06377 6.22357 8.07059 6.22827 8.08247 6.24007L10.2537 4.05455ZM8.01165 3.13715C7.15793 3.13524 6.37298 3.44379 5.75888 4.0599L7.94083 6.23472C7.95227 6.22325 7.9584 6.21914 7.9587 6.21894C7.9588 6.21887 7.95661 6.22026 7.95329 6.2216C7.95004 6.22292 7.95035 6.22232 7.95647 6.22119C7.9629 6.22001 7.97829 6.2178 8.00476 6.21785L8.01165 3.13715ZM5.75888 4.0599C5.14767 4.67312 4.83969 5.45472 4.83969 6.30566H7.9204C7.9204 6.27917 7.92264 6.26351 7.92392 6.25661C7.92515 6.25002 7.92592 6.24904 7.92492 6.25151C7.92389 6.25405 7.92292 6.25545 7.92351 6.25457C7.92423 6.2535 7.92887 6.24672 7.94083 6.23472L5.75888 4.0599ZM4.83969 6.30566C4.83969 7.15666 5.14576 7.94186 5.76245 8.55653L7.93726 6.37456C7.92643 6.36377 7.92268 6.35811 7.92263 6.35804C7.9225 6.35784 7.92287 6.35838 7.9235 6.35957C7.92414 6.36075 7.92472 6.36202 7.92519 6.36316C7.92631 6.36595 7.92546 6.36488 7.92414 6.35768C7.92275 6.35017 7.9204 6.33354 7.9204 6.30566H4.83969ZM5.76245 8.55653C6.37551 9.16758 7.1565 9.47381 8.00476 9.47571L8.01165 6.395C7.9842 6.39494 7.96769 6.3926 7.96003 6.39117C7.95267 6.3898 7.95116 6.38885 7.95329 6.38971C7.9555 6.39061 7.95683 6.39151 7.95611 6.39103C7.95521 6.39042 7.94877 6.38604 7.93726 6.37456L5.76245 8.55653ZM15.445 12.2607H20.3619V9.17996H15.445V12.2607ZM21.6687 9.90494L19.2103 5.96471L16.5966 7.59546L19.055 11.5357L21.6687 9.90494ZM16.5966 5.96471L14.1382 9.90494L16.7519 11.5357L19.2103 7.59546L16.5966 5.96471ZM19.2103 20.097L21.6687 16.1568L19.055 14.526L16.5966 18.4662L19.2103 20.097ZM20.3619 13.801H15.445V16.8817H20.3619V13.801ZM14.1382 16.1568L16.5966 20.097L19.2103 18.4662L16.7519 14.526L14.1382 16.1568ZM2.97432 23.8133C2.64712 23.8133 2.45507 23.7204 2.28749 23.5529L0.109096 25.7312C0.890369 26.5125 1.88234 26.894 2.97432 26.894V23.8133ZM2.28749 23.5529C2.11977 23.3851 2.02594 23.1919 2.02546 22.8623L-1.05525 22.8667C-1.05367 23.9583 -0.672045 24.9501 0.109096 25.7312L2.28749 23.5529ZM2.02546 22.8645V3.19722H-1.05525V22.8645H2.02546ZM2.02546 3.19722C2.02546 2.87107 2.11812 2.67939 2.28631 2.51156L0.110274 0.330819C-0.672454 1.11186 -1.05525 2.1042 -1.05525 3.19722H2.02546ZM2.28631 2.51156C2.45642 2.34182 2.65033 2.24883 2.97655 2.24836L2.97209 -0.832346C1.88119 -0.830765 0.891078 -0.448298 0.110274 0.330819L2.28631 2.51156ZM2.97432 2.24836H22.6431V-0.832347H2.97432V2.24836ZM22.6431 2.24836C22.9676 2.24836 23.1602 2.34063 23.33 2.51039L25.5083 0.331996C24.7272 -0.449161 23.7358 -0.832347 22.6431 -0.832347V2.24836ZM23.33 2.51039C23.4991 2.67956 23.5909 2.87124 23.5904 3.19499L26.6711 3.19945C26.6727 2.10608 26.2901 1.11374 25.5083 0.331996L23.33 2.51039ZM23.5904 3.19722V22.866H26.6711V3.19722H23.5904ZM23.5904 22.866C23.5904 23.1915 23.4979 23.3845 23.3288 23.554L25.5095 25.7301C26.2892 24.9487 26.6711 23.9576 26.6711 22.866H23.5904ZM23.3288 23.554C23.162 23.7212 22.971 23.8138 22.6438 23.8133L22.6394 26.894C23.7334 26.8956 24.7274 26.5138 25.5095 25.7301L23.3288 23.554ZM22.6416 23.8133H2.97432V26.894H22.6416V23.8133ZM2.97432 25.3537H22.6431V22.273H2.97432V25.3537ZM22.6431 25.3537C23.2832 25.3537 23.9165 25.1327 24.4131 24.636L22.2348 22.4577C22.2914 22.401 22.3685 22.3478 22.4591 22.3123C22.5468 22.278 22.6146 22.273 22.6431 22.273V25.3537ZM24.4131 24.636C24.9098 24.1394 25.1308 23.5061 25.1308 22.866H22.0501C22.0501 22.8375 22.0551 22.7697 22.0894 22.682C22.1249 22.5914 22.1781 22.5143 22.2348 22.4577L24.4131 24.636ZM25.1308 22.866V3.19568H22.0501V22.866H25.1308ZM25.1308 3.19568C25.1308 2.55557 24.9098 1.92229 24.4131 1.42565L22.2348 3.60404C22.1781 3.54739 22.1249 3.47027 22.0894 3.37972C22.0551 3.29204 22.0501 3.22423 22.0501 3.19568H25.1308ZM24.4131 1.42565C23.9165 0.929004 23.2832 0.708008 22.6431 0.708008V3.78872C22.6146 3.78872 22.5468 3.7837 22.4591 3.74938C22.3685 3.71394 22.2914 3.66069 22.2348 3.60404L24.4131 1.42565ZM22.6431 0.708008H2.97278V3.78872H22.6431V0.708008ZM2.97278 0.708008C2.33268 0.708008 1.69939 0.929004 1.20275 1.42565L3.38114 3.60404C3.32449 3.66069 3.24736 3.71394 3.15682 3.74938C3.06914 3.7837 3.00133 3.78872 2.97278 3.78872V0.708008ZM1.20275 1.42565C0.704956 1.92344 0.485107 2.55788 0.485107 3.19722H3.56582C3.56582 3.22455 3.56103 3.29164 3.52691 3.37901C3.49163 3.46934 3.43837 3.54681 3.38114 3.60404L1.20275 1.42565ZM0.485107 3.19722V22.866H3.56582V3.19722H0.485107ZM0.485107 22.866C0.485107 23.5061 0.706104 24.1394 1.20275 24.636L3.38114 22.4577C3.43779 22.5143 3.49104 22.5914 3.52648 22.682C3.5608 22.7697 3.56582 22.8375 3.56582 22.866H0.485107ZM1.20275 24.636C1.70054 25.1338 2.33497 25.3537 2.97432 25.3537V22.273C3.00165 22.273 3.06874 22.2778 3.15611 22.3119C3.24644 22.3472 3.32391 22.4004 3.38114 22.4577L1.20275 24.636Z" fill="#4B5563" mask="url(#path-1-inside-1_178_582)"/>
</svg>
