<svg width="32" height="33" viewBox="0 0 32 33" fill="none" xmlns="http://www.w3.org/2000/svg">
<path d="M11.957 1.70801V4.78872" stroke="#4B5563" stroke-width="2.31053" stroke-linecap="round" stroke-linejoin="round"/>
<path d="M18.1184 1.70801V4.78872" stroke="#4B5563" stroke-width="2.31053" stroke-linecap="round" stroke-linejoin="round"/>
<path d="M21.1992 10.9502C21.6077 10.9502 21.9995 11.1125 22.2884 11.4014C22.5772 11.6902 22.7395 12.082 22.7395 12.4906V24.8134C22.7395 26.4475 22.0904 28.0147 20.9349 29.1702C19.7794 30.3257 18.2122 30.9748 16.5781 30.9748H7.33598C5.70187 30.9748 4.13469 30.3257 2.9792 29.1702C1.82371 28.0147 1.17456 26.4475 1.17456 24.8134V12.4906C1.17456 12.082 1.33685 11.6902 1.62572 11.4014C1.91459 11.1125 2.30639 10.9502 2.71492 10.9502H24.2799C25.914 10.9502 27.4812 11.5993 28.6367 12.7548C29.7922 13.9103 30.4413 15.4775 30.4413 17.1116C30.4413 18.7457 29.7922 20.3129 28.6367 21.4684C27.4812 22.6239 25.914 23.273 24.2799 23.273H22.7395" stroke="#4B5563" stroke-width="2.31053" stroke-linecap="round" stroke-linejoin="round"/>
<path d="M5.79565 1.70801V4.78872" stroke="#F9FAFB" stroke-width="2.31053" stroke-linecap="round" stroke-linejoin="round"/>
</svg>
