<svg xmlns="http://www.w3.org/2000/svg" width="17" height="17" viewBox="0 0 17 17" fill="none">
  <path d="M8.48523 0C4.07115 0 0.485229 3.81005 0.485229 8.5C0.485229 10.0075 0.874338 11.4143 1.52327 12.6425L0.498137 16.5308C0.48176 16.593 0.48102 16.6587 0.495991 16.7214C0.510962 16.784 0.541122 16.8413 0.583462 16.8877C0.625803 16.9341 0.678846 16.9679 0.737301 16.9857C0.795757 17.0035 0.857583 17.0047 0.916615 16.9892L4.73251 15.9844C5.8538 16.6204 7.12613 17 8.48523 17C12.8993 17 16.4852 13.19 16.4852 8.5C16.4852 3.81005 12.8993 0 8.48523 0ZM8.48523 0.73913C12.5233 0.73913 15.7896 4.20952 15.7896 8.5C15.7896 12.7905 12.5233 16.2609 8.48523 16.2609C7.19063 16.2609 5.97814 15.9023 4.92409 15.2756C4.847 15.2298 4.75641 15.2169 4.67069 15.2395L1.32898 16.1194L2.22504 12.7226C2.23786 12.6746 2.2414 12.6243 2.23545 12.5748C2.22949 12.5253 2.21417 12.4776 2.19039 12.4346C1.54982 11.2805 1.18088 9.93765 1.18088 8.5C1.18088 4.20952 4.44713 0.73913 8.48523 0.73913ZM5.5783 4.06522C5.35533 4.06522 5.0369 4.15336 4.77531 4.45283C4.61819 4.6327 3.96349 5.31047 3.96349 6.50204C3.96349 7.74434 4.77441 8.81629 4.87246 8.95402H4.87314V8.95474C4.86384 8.94175 4.99759 9.14755 5.17613 9.39432C5.35466 9.64109 5.60433 9.96519 5.91797 10.3161C6.54527 11.0178 7.42724 11.8288 8.52191 12.3249C9.02603 12.5529 9.42373 12.6907 9.72504 12.7911C10.2834 12.9774 10.792 12.9491 11.1741 12.8893C11.4601 12.8446 11.7746 12.6987 12.0858 12.4894C12.397 12.2802 12.702 12.02 12.8365 11.6247C12.9328 11.3413 12.9818 11.0794 12.9995 10.8639C13.0084 10.7562 13.0095 10.6611 13.0029 10.573C12.9963 10.485 13.0033 10.4175 12.9261 10.2829C12.7642 10.0004 12.5808 9.99299 12.3894 9.89237C12.2831 9.83646 11.9804 9.6794 11.6768 9.52569C11.3735 9.37214 11.1109 9.23616 10.9492 9.17489C10.8471 9.13583 10.7223 9.07961 10.5423 9.10127C10.3623 9.12292 10.1845 9.26091 10.081 9.42391C9.98291 9.57842 9.58797 10.0737 9.46757 10.2193C9.46597 10.2183 9.47642 10.2234 9.42884 10.1984C9.27993 10.1201 9.09781 10.0535 8.8283 9.90247C8.55879 9.75142 8.22167 9.52837 7.85276 9.18283V9.18211C7.30367 8.6685 6.91906 8.02367 6.79773 7.80707C6.8059 7.79673 6.79676 7.80925 6.81403 7.79119L6.81471 7.79046C6.93872 7.66069 7.04862 7.50569 7.14148 7.39203C7.27315 7.23086 7.33125 7.08879 7.3942 6.95605C7.51965 6.69151 7.4498 6.4004 7.37721 6.24724V6.24652C7.38223 6.25711 7.33795 6.15332 7.29026 6.03359C7.24243 5.91351 7.18146 5.75784 7.11634 5.59184C6.98611 5.25984 6.84072 4.88747 6.75425 4.66937V4.66865C6.65239 4.41175 6.51458 4.22668 6.33441 4.1374C6.15424 4.04811 5.99507 4.0735 5.98863 4.07316H5.98795C5.85938 4.06686 5.71829 4.06522 5.5783 4.06522ZM5.5783 4.80435C5.7124 4.80435 5.84461 4.80609 5.95534 4.81157C6.06925 4.8176 6.06216 4.81809 6.04026 4.80723C6.018 4.79621 6.0482 4.79263 6.11295 4.95593C6.19761 5.16948 6.34372 5.5432 6.47436 5.87623C6.53968 6.04275 6.60081 6.19902 6.64963 6.32159C6.69845 6.44415 6.72491 6.51259 6.75561 6.57783V6.57855L6.75629 6.57927C6.78639 6.64237 6.78373 6.60197 6.77327 6.62402C6.69987 6.77881 6.68991 6.81681 6.61566 6.90769C6.50261 7.04607 6.3873 7.20039 6.32626 7.26427C6.27286 7.32 6.17651 7.40684 6.11634 7.57681C6.05609 7.74704 6.08421 7.9806 6.18088 8.15498C6.30959 8.38713 6.73372 9.12061 7.39284 9.73718C7.80793 10.126 8.19464 10.3833 8.50357 10.5564C8.8125 10.7296 9.06412 10.8307 9.12042 10.8603C9.25412 10.9306 9.40024 10.9852 9.57015 10.9635C9.74006 10.9419 9.88654 10.8323 9.97979 10.7203L9.98047 10.7196C10.1046 10.5701 10.4734 10.1227 10.6503 9.84689C10.6578 9.8497 10.6554 9.84752 10.7142 9.86999V9.87071H10.7148C10.7417 9.88087 11.078 10.0408 11.3779 10.1926C11.6778 10.3445 11.9821 10.5023 12.081 10.5543C12.2237 10.6293 12.2912 10.6782 12.3086 10.6784C12.3098 10.7109 12.311 10.7462 12.3066 10.7997C12.2944 10.9481 12.257 11.1536 12.1822 11.3735C12.1456 11.4812 11.9548 11.7033 11.7142 11.8651C11.4735 12.0269 11.1807 12.1411 11.0722 12.1581C10.7461 12.2092 10.3589 12.2278 9.9336 12.0859C9.63874 11.9876 9.27107 11.8603 8.79501 11.6449C7.82951 11.2074 7.00891 10.463 6.42273 9.80719C6.12964 9.47931 5.89482 9.17409 5.72776 8.94319C5.56101 8.71272 5.4882 8.59278 5.42749 8.50794L5.42681 8.50722C5.31904 8.3558 4.65914 7.38053 4.65914 6.50204C4.65914 5.5723 5.06558 5.2077 5.2855 4.95593C5.40096 4.82375 5.52718 4.80435 5.5783 4.80435Z" fill="#9CA3AF"/>
</svg>