<svg xmlns="http://www.w3.org/2000/svg" width="17" height="18" viewBox="0 0 17 18" fill="none">
  <path d="M14.1537 2.85342C13.4165 2.06641 12.5384 1.4424 11.5708 1.01773C10.6031 0.593073 9.56522 0.376259 8.51751 0.379929C4.12756 0.379929 0.549673 4.16242 0.549673 8.80341C0.549673 10.2909 0.919522 11.7359 1.61098 13.0109L0.485352 17.3799L4.70646 16.2069C5.87229 16.8784 7.18284 17.2354 8.51751 17.2354C12.9075 17.2354 16.4854 13.4529 16.4854 8.81191C16.4854 6.55941 15.6572 4.44292 14.1537 2.85342ZM8.51751 15.8074C7.32756 15.8074 6.16173 15.4674 5.14063 14.8299L4.89942 14.6769L2.39088 15.3739L3.05822 12.7899L2.89741 12.5264C2.23614 11.4104 1.88509 10.1203 1.88435 8.80341C1.88435 4.94442 4.85922 1.79942 8.50947 1.79942C10.2783 1.79942 11.9426 2.53042 13.1889 3.85642C13.806 4.5057 14.2951 5.27808 14.6278 6.12874C14.9604 6.97941 15.1299 7.89143 15.1266 8.81191C15.1426 12.6709 12.1678 15.8074 8.51751 15.8074ZM12.1517 10.5714C11.9507 10.4694 10.9698 9.9594 10.7929 9.8829C10.608 9.8149 10.4793 9.7809 10.3426 9.9849C10.206 10.1974 9.82806 10.6734 9.7155 10.8094C9.60294 10.9539 9.48234 10.9709 9.28133 10.8604C9.08033 10.7584 8.43711 10.5289 7.68133 9.8149C7.08636 9.25391 6.69239 8.56541 6.57178 8.35291C6.45922 8.14041 6.5557 8.02991 6.66023 7.91941C6.74867 7.82591 6.86123 7.67291 6.95771 7.55391C7.0542 7.43491 7.0944 7.34141 7.15872 7.20541C7.22304 7.06091 7.19088 6.94191 7.14264 6.83991C7.0944 6.73791 6.69239 5.70091 6.53158 5.27592C6.37078 4.86792 6.20193 4.91892 6.08133 4.91042H5.6954C5.55872 4.91042 5.34967 4.96142 5.16475 5.17392C4.98786 5.38642 4.47329 5.89641 4.47329 6.93341C4.47329 7.97041 5.18887 8.97341 5.28535 9.10941C5.38183 9.25391 6.69239 11.3789 8.68636 12.2884C9.16073 12.5094 9.53058 12.6369 9.82002 12.7304C10.2944 12.8919 10.7286 12.8664 11.0743 12.8154C11.4602 12.7559 12.2562 12.3054 12.417 11.8124C12.5859 11.3194 12.5859 10.9029 12.5296 10.8094C12.4733 10.7159 12.3527 10.6734 12.1517 10.5714Z" fill="#F9FAFB"/>
</svg>