<svg xmlns="http://www.w3.org/2000/svg" width="22" height="22" viewBox="0 0 22 22" fill="none">
  <path d="M20.8881 15.8752V18.8752C20.8892 19.1537 20.8322 19.4293 20.7206 19.6845C20.6091 19.9397 20.4454 20.1688 20.2402 20.357C20.035 20.5453 19.7927 20.6887 19.5289 20.7779C19.265 20.8671 18.9855 20.9002 18.7081 20.8752C15.631 20.5408 12.6751 19.4893 10.0781 17.8052C7.66194 16.2698 5.61345 14.2213 4.07812 11.8052C2.38809 9.19638 1.33636 6.22617 1.00812 3.13517C0.983127 2.85864 1.01599 2.57994 1.10462 2.3168C1.19324 2.05366 1.33569 1.81186 1.52288 1.6068C1.71008 1.40173 1.93792 1.23788 2.19191 1.1257C2.44589 1.01351 2.72046 0.955437 2.99812 0.955175H5.99812C6.48342 0.950399 6.95391 1.12225 7.32188 1.43871C7.68985 1.75516 7.93019 2.19462 7.99812 2.67518C8.12474 3.63524 8.35957 4.5779 8.69812 5.48518C8.83266 5.8431 8.86178 6.23209 8.78202 6.60606C8.70227 6.98002 8.51698 7.32329 8.24812 7.59518L6.97812 8.86517C8.40167 11.3687 10.4746 13.4416 12.9781 14.8652L14.2481 13.5952C14.52 13.3263 14.8633 13.141 15.2372 13.0613C15.6112 12.9815 16.0002 13.0106 16.3581 13.1452C17.2654 13.4837 18.2081 13.7186 19.1681 13.8452C19.6539 13.9137 20.0975 14.1584 20.4146 14.5327C20.7318 14.907 20.9003 15.3848 20.8881 15.8752Z" stroke="#1F2937" stroke-width="1.5" stroke-linecap="round" stroke-linejoin="round"/>
</svg>