<svg xmlns="http://www.w3.org/2000/svg" width="66" height="59" viewBox="0 0 66 59" fill="none">
  <path d="M40.1012 43.2309C42.7182 39.8218 44.6647 36.1051 45.6032 31.8078L44.8945 31.8842C44.8448 31.2624 44.8183 30.6621 45.0397 30.0892C45.2488 29.5482 45.756 29.4475 46.2264 29.3159C46.4376 29.2568 46.6599 29.2385 46.9094 29.1962C46.9094 28.4505 46.8363 27.7097 46.9254 26.9901C47.0774 25.702 47.294 24.4229 47.5745 23.1578C47.8237 22.0655 48.6107 21.374 49.5759 20.9222C50.9756 20.267 52.39 20.1306 53.7794 20.9542C54.7814 21.5481 55.3013 22.5133 55.6747 23.7149C54.9054 24.1797 54.1505 24.6307 53.4013 25.0916C53.1713 25.2328 53.0299 25.1685 52.8792 24.9573C52.5404 24.4826 52.1342 24.0939 51.5406 23.9793C51.1073 23.8958 50.6901 24.2019 50.3811 24.5175C49.5732 25.3427 49.7434 26.4095 49.5933 27.3981C49.5394 27.7533 49.5311 28.1153 49.4982 28.5211L51.2082 28.2879C51.1599 29.0932 51.1139 29.8597 51.0656 30.664C50.5359 30.7872 50.0093 30.9322 49.4749 31.0258C49.094 31.0926 48.8662 31.2185 48.7093 31.6431C48.2991 32.7542 47.8021 33.8314 47.3349 34.9196C46.3384 37.2418 45.3168 39.5514 44.0396 41.7291C43.7918 42.1517 43.5283 42.5667 43.2422 42.9624C43.1502 43.0896 42.964 43.215 42.8178 43.2189C42.3726 43.2306 41.9272 43.2334 41.4762 43.2334C41.0251 43.2334 40.569 43.2309 40.1012 43.2309ZM0.2229 40.479C0.617247 39.8571 1.07117 39.2661 1.39404 38.6071C2.20308 36.956 3.60865 36.3045 5.26293 36.1425C6.61279 36.01 7.97652 36.0172 9.33463 35.9844C10.8583 35.9476 12.3826 35.9388 13.9063 35.9076C14.0567 35.8989 14.2034 35.856 14.3359 35.782C15.7935 35.0048 17.1224 34.0523 18.1916 32.7506C19.1788 31.5488 19.8521 30.1967 19.8594 28.5959C19.8691 26.4493 18.8377 24.9066 17.0982 23.8C15.8765 23.0228 14.5325 22.9084 13.1671 23.0523C12.2758 23.1584 11.3949 23.3429 10.5343 23.604C9.7232 23.8389 8.94394 24.1895 8.43918 24.9622C8.38728 25.0419 8.26771 25.0808 8.17306 25.1229C7.34719 25.4911 6.51864 25.8529 5.69326 26.2222C5.13836 26.4704 4.74669 26.2405 4.65282 25.6065C4.5517 24.9231 4.86696 24.3742 5.17441 23.8138C5.92282 22.4504 7.18135 21.794 8.52178 21.2798C10.4572 20.5373 12.4798 20.3664 14.5297 20.3968C16.6576 20.4284 18.719 20.7759 20.6557 21.7205C22.3473 22.5455 23.7759 23.6873 24.6146 25.463C25.5309 27.4023 25.4545 29.3732 24.678 31.3353C23.7978 33.5591 22.2428 35.1869 20.3402 36.5131C19.4505 37.1332 18.4614 37.5172 17.4913 37.9643C15.9807 38.6602 14.3913 38.7561 12.7898 38.7925C12.0521 38.8092 11.3139 38.7969 10.5757 38.7847C9.92974 38.774 9.28378 38.763 8.63818 38.772C6.69462 38.7983 4.75028 38.8528 2.85833 39.3968C1.97387 39.6512 1.13539 40.0108 0.381484 40.561C0.33135 40.5886 0.278085 40.6098 0.2229 40.624L0.2229 40.479ZM6.54202 35.0234C6.69067 34.4072 6.83574 33.8076 6.9801 33.208C7.4012 31.4587 7.81865 29.7083 8.24975 27.9616C8.28657 27.8045 8.37683 27.6662 8.50417 27.5717C9.59447 26.9143 10.6955 26.276 11.7943 25.6334C11.8523 25.6048 11.9119 25.5797 11.9727 25.5581C11.5657 27.1657 11.1674 28.7427 10.7672 30.319C10.4222 31.6771 10.0809 33.0362 9.72186 34.3904C9.687 34.5219 9.55095 34.7082 9.44272 34.7232C8.53861 34.8485 7.63013 34.9401 6.72271 35.04C6.7157 35.0407 6.70864 35.0411 6.70159 35.041C6.66272 35.041 6.61779 35.0308 6.54202 35.0234ZM62.8993 34.3867C62.7481 34.3117 62.6219 34.1654 62.51 34.028C62.099 33.5221 61.8103 33.5533 61.2673 33.8347C60.1652 34.4058 59.0445 34.4401 57.8954 34.0904C56.0343 33.5241 54.7585 31.8167 54.6905 29.6808C54.6334 27.8858 55.5838 26.1696 57.3704 25.3381C59.5016 24.3461 61.8561 25.0663 63.203 27.0328C63.5658 27.5625 63.4027 28.0558 63.3585 28.5825C63.2699 29.6372 63.1652 30.6914 63.1149 31.7482C63.0803 32.4761 63.5388 32.8428 64.232 32.7365C64.4024 32.7102 64.5799 32.7326 64.7757 32.7326C64.8501 33.0689 64.6716 33.2486 64.4809 33.4104C64.0943 33.7382 63.7079 34.0676 63.3012 34.3672C63.236 34.4074 63.1608 34.427 63.0849 34.4237C63.0212 34.4252 62.9578 34.4126 62.8993 34.3867ZM58.7683 27.2549C58.0271 27.4235 57.1548 28.7098 57.2507 29.7227C57.2253 30.335 57.4055 30.9377 57.761 31.4294C58.2117 32.0589 58.815 32.3651 59.5855 32.2675C60.3583 32.1696 60.7982 31.6876 60.9756 30.9388C61.189 30.0383 61.1024 29.1459 60.8282 28.273C60.5839 27.4955 60.046 27.1815 59.3739 27.1814C59.1701 27.1834 58.9671 27.208 58.7684 27.255L58.7683 27.2549ZM40.2878 34.313C39.6015 34.0081 39.1264 33.1129 39.2539 32.3585C39.5223 30.772 39.7972 29.1854 40.1284 27.612C40.3205 26.6992 40.6283 25.8122 40.8818 24.913C40.9561 24.6497 41.0764 24.5407 41.3827 24.5696C41.9768 24.6257 42.5776 24.6033 43.1755 24.6189C43.3356 24.6232 43.4951 24.6473 43.6749 24.6642C43.3762 25.5476 43.0593 26.3857 42.8099 27.2449C42.4261 28.5669 42.0701 29.8975 41.7419 31.2365C41.6548 31.5891 41.68 31.9767 41.6905 32.3472C41.7002 32.6898 41.9243 32.8513 42.2382 32.8013C42.5332 32.7544 42.8186 32.6452 43.1691 32.5463C42.5852 33.3074 42.1298 34.1812 41.1275 34.3948C41.0341 34.4141 40.9391 34.4236 40.8439 34.4233C40.6532 34.4248 40.4642 34.3874 40.2878 34.313ZM35.3648 34.1356C35.2667 34.0496 35.1716 33.9597 35.0788 33.8674C34.5822 33.374 34.3777 33.3201 33.7578 33.6526C33.1036 34.0037 32.4161 34.1165 31.6911 34.1025C29.2465 34.0561 27.2097 31.9153 27.2368 29.4116C27.2654 26.7759 29.2864 24.6748 31.8499 24.6978C33.6475 24.714 35.0346 25.5469 35.9324 27.1769C35.9922 27.3011 36.0162 27.4403 36.0016 27.5781C35.8882 28.8605 35.7324 30.1398 35.6542 31.4243C35.6017 32.2876 36.0379 32.6276 36.8795 32.5215C37.0257 32.5031 37.1827 32.5762 37.3348 32.607C37.2755 32.7678 37.2477 32.9543 37.149 33.0829C37.0287 33.2397 36.8494 33.349 36.6941 33.4768C36.4245 33.6987 36.1418 33.9056 35.8875 34.1444C35.8219 34.2161 35.7321 34.2593 35.6365 34.265C35.5339 34.2566 35.4375 34.2107 35.3648 34.1356ZM31.073 27.1598C30.2146 27.6726 29.7889 28.487 29.7909 29.7001C29.7737 30.1215 29.9454 30.6605 30.2632 31.1559C30.704 31.8432 31.4603 32.1885 32.1939 32.0561C33.0124 31.9084 33.4 31.3654 33.5564 30.5707C33.7214 29.7331 33.6313 28.9185 33.3861 28.1177C33.289 27.7795 33.0893 27.4822 32.8161 27.2693C32.5429 27.0565 32.2107 26.9393 31.8681 26.935C31.5884 26.9361 31.314 27.0138 31.073 27.1601V27.1598ZM42.2029 22.9548C41.789 22.8365 41.4162 22.6511 41.1974 22.2394C40.9936 21.8561 41.0225 21.5435 41.2932 21.2083C41.6569 20.7576 42.2454 20.5244 43.0286 20.5208C43.5919 20.5197 44.1191 20.6417 44.5605 21.0259C45.0837 21.481 45.0944 22.1262 44.556 22.5645C44.1407 22.9093 43.6219 23.0947 43.0884 23.0889C42.7887 23.0857 42.4908 23.0407 42.2029 22.9551V22.9548ZM10.8624 18.3922C10.9238 17.9191 11.027 17.4527 11.1708 16.9989C11.2726 16.6787 11.4013 16.3682 11.5555 16.071C11.9494 15.265 11.9846 14.3769 12.1161 13.5133C12.4074 11.6008 12.6814 9.6858 12.9507 7.76967C13.1081 6.64999 13.2394 5.52646 13.3915 4.40613C13.4165 4.21545 13.4687 4.02963 13.5465 3.8547C13.7326 3.4465 14.0352 3.15459 14.4928 3.16307C14.9374 3.17126 15.2486 3.43925 15.4531 3.84288C15.6785 4.28819 15.6395 4.74901 15.5456 5.21613C15.3332 6.27268 15.1214 7.32937 14.9037 8.4144H19.7057C19.7057 8.01085 19.6987 7.62752 19.7071 7.24455C19.732 6.111 19.7607 4.97759 19.7931 3.84433C19.8068 3.36974 20.024 2.99061 20.3661 2.69014C20.9979 2.13523 21.7153 1.82983 22.5606 1.98097C23.2996 2.11312 23.695 2.74487 23.3882 3.44462C23.1169 4.06968 22.7646 4.65404 22.3409 5.18177C21.7001 5.96923 21.3134 6.80468 21.2794 7.85151C21.2306 9.3572 21.1038 10.8605 20.9953 12.3637C20.9622 12.7601 21.0504 13.1573 21.2474 13.4997C21.3524 13.6854 21.3621 13.8514 21.2132 14.0222C20.7138 14.5948 20.2386 15.1916 19.7127 15.7367C19.5471 15.9085 19.2512 15.9469 19.0148 16.0466L18.881 15.9524L19.2191 10.3644C19.1168 10.3552 18.9937 10.3371 18.8708 10.334C17.7572 10.3065 16.641 10.3212 15.5309 10.2436C14.6685 10.1834 14.0258 11.0142 13.9676 11.7255C13.8298 13.4072 13.7262 15.0925 13.6065 16.7761C13.5516 17.5469 12.5585 18.943 11.476 18.9745C11.4625 18.9749 11.4492 18.9751 11.4361 18.9751C11.045 18.975 10.8201 18.7987 10.8624 18.3922ZM33.2669 14.3634C33.3302 14.0235 33.404 13.6698 33.5556 13.3661C33.9888 12.4985 34.104 11.5526 34.2238 10.6153C34.4603 8.76518 34.6633 6.90994 34.8457 5.05325C34.9302 4.19402 34.9333 3.32646 34.9702 2.52675C33.6358 2.52675 32.3936 2.51834 31.1516 2.53487C30.9404 2.53777 30.7231 2.62794 30.5217 2.71138C29.9035 2.96749 29.296 3.25868 28.5992 3.08057C28.0038 2.92834 27.7182 2.4386 27.8707 1.82207C27.9519 1.47473 28.1449 1.1659 28.4183 0.945802C28.6916 0.725705 29.0293 0.607291 29.3764 0.609819C32.4155 0.603343 35.4546 0.596094 38.4935 0.588072C40.0533 0.581838 41.6131 0.560308 43.1726 0.543998C43.6471 0.539069 43.8946 0.8797 43.7164 1.33153C43.4641 1.97126 42.4638 2.8647 41.6369 2.85593C40.3705 2.84244 39.104 2.82577 37.8377 2.82584C37.6563 2.81923 37.4765 2.8616 37.3159 2.94874C37.1554 3.03588 37.0199 3.16475 36.9227 3.32255C36.7558 3.58068 36.5387 3.80424 36.3687 4.06064C35.9192 4.73893 35.9836 5.53625 35.9325 6.29573C35.821 7.95575 35.7473 9.61933 35.6649 11.2817C35.6398 11.7881 35.6281 12.295 35.6297 12.8025C35.6297 12.9257 35.6931 13.0537 35.744 13.1722C36.0773 13.9461 36.1652 14.7018 35.5885 15.4053C35.3198 15.7318 34.9368 15.9359 34.5227 15.9732C34.4678 15.9795 34.4126 15.9827 34.3574 15.9827C33.5673 15.9821 33.0912 15.3017 33.2669 14.3634ZM48.8423 15.2204C48.6768 15.1055 48.5314 14.9627 48.4122 14.798C48.2324 14.5753 48.1821 14.3509 48.3048 14.0418C48.8502 12.6686 49.0416 11.2119 49.1568 9.74648C49.2257 8.86877 49.2998 7.98417 49.2666 7.10689C49.2044 5.47021 49.0657 3.83672 48.9595 2.20178C48.9558 2.14378 48.959 2.08536 48.959 1.97481C49.134 1.98418 49.308 2.00571 49.4801 2.03925C50.1311 2.21243 50.6742 2.58206 51.153 3.05672C51.3524 3.25448 51.4679 3.45658 51.4006 3.7904C51.3447 4.06825 51.4947 4.38322 51.4793 4.67775C51.4167 5.86912 51.3586 7.06267 51.2367 8.24847C51.0671 9.89965 50.8418 11.5447 50.6394 13.1923C50.6263 13.2996 50.6009 13.4053 50.5887 13.5128C50.5183 14.1289 50.6516 14.2639 51.2781 14.2148C51.9678 14.1608 52.6011 13.9192 53.1969 13.5748C54.1146 13.0443 55.0196 12.4901 55.9405 11.9655C56.1392 11.8524 56.3788 11.8032 56.6059 11.7586C57.0935 11.663 57.2186 11.7665 57.2585 12.2733C57.2991 12.787 57.0933 13.2109 56.7879 13.5966C56.2581 14.2655 55.5274 14.6319 54.7817 14.9488C54.0277 15.2689 53.2654 15.6205 52.4729 15.7808C52.0907 15.8595 51.7021 15.8998 51.3124 15.9013C50.4443 15.9088 49.5906 15.6734 48.8423 15.2204ZM26.2739 15.8182C25.6779 15.7711 25.274 15.3858 24.9852 14.8679C24.4449 13.8991 24.341 12.8309 24.3937 11.7526C24.4825 9.86458 25.076 8.0385 26.1089 6.47572C26.5981 5.72501 27.193 5.07978 28.0607 4.78257C29.1423 4.41207 30.0687 4.82367 30.6144 5.94241C31.0697 6.87565 31.2232 7.88109 31.2059 9.39011C31.1225 10.6355 30.8638 12.3226 30.062 13.8522C29.2993 15.3072 28.1685 15.8384 26.7637 15.8384C26.6039 15.8383 26.4406 15.8315 26.2738 15.8182H26.2739ZM28.0912 6.79859C27.8095 6.92023 27.5828 7.1875 27.3456 7.40533C26.6338 8.05934 26.2916 8.91965 26.0982 9.85347C25.9518 10.5605 25.9229 11.2733 26.2562 11.9336C26.3729 12.1664 26.559 12.3547 26.7872 12.4708C27.6327 12.8439 28.5054 12.565 28.9843 11.7513C29.5046 10.8644 29.8124 9.86276 29.8821 8.82919C29.7765 8.36525 29.7188 7.88232 29.554 7.44187C29.3743 6.96177 29.0041 6.69348 28.5718 6.69348C28.4064 6.69525 28.243 6.73098 28.0912 6.79859ZM40.1595 14.2327C39.6648 13.199 39.5307 12.0902 39.6005 10.9608C39.6764 9.65969 40.0094 8.38819 40.5793 7.22418C41.2201 5.91842 42.1729 4.92748 43.5279 4.42606C44.3814 4.11008 45.2496 4.06238 46.0361 4.65919C47.2767 5.6004 47.8017 8.43035 46.089 9.52857C45.2402 10.0665 44.2893 10.4112 43.3004 10.5394C42.9647 10.5861 42.626 10.6108 42.2887 10.6454C41.4603 10.6433 41.4494 10.6411 41.2901 11.5096C41.2305 11.7994 41.2295 12.0986 41.287 12.3889C41.3445 12.6791 41.4594 12.954 41.6245 13.1966C41.9688 13.7081 42.5237 13.847 43.0267 13.5079C43.2866 13.3327 43.4954 13.0786 43.7354 12.87C44.0101 12.6314 44.2777 12.3776 44.5793 12.1798C44.8399 12.0085 45.1505 12.0047 45.3978 12.2285C45.5188 12.3351 45.6077 12.4752 45.6541 12.632C45.7004 12.7889 45.7023 12.9562 45.6596 13.1142C45.4427 14.0242 44.8678 14.6854 44.1046 15.1168C43.6058 15.3987 43.0191 15.5616 42.4525 15.6599C42.3429 15.6791 42.232 15.6888 42.1209 15.6889C41.3017 15.6893 40.5966 15.1463 40.1595 14.2327ZM44.2885 5.52146C43.687 5.62019 43.2276 5.91414 42.8145 6.39453C42.2821 7.01345 41.9343 7.6887 41.8154 8.49754C41.7408 9.00613 41.9114 9.2152 42.412 9.23513C42.4824 9.23803 42.5528 9.23557 42.6232 9.23557C43.4218 9.20646 44.2004 8.97066 44.8871 8.54995C45.3283 8.27449 45.6771 7.91298 45.8159 7.37677C46.0563 6.44752 45.7384 5.49051 44.6469 5.49051C44.5269 5.49109 44.407 5.50144 44.2885 5.52146Z" fill="black"/>
  <path d="M36.6297 53.4194C36.7377 53.1847 36.8457 52.9501 36.9835 52.651C36.753 52.255 36.554 51.7545 36.916 51.2123C36.9292 51.1925 36.9346 51.1616 36.9521 51.1512C37.5636 50.7865 37.7589 50.1095 38.107 49.544C38.381 49.0992 38.8108 48.8612 39.3021 48.717C39.4875 48.6635 39.6534 48.5551 39.7794 48.4053C40.0639 48.0363 40.3944 47.7998 40.8609 47.7456C41.1 47.7072 41.3326 47.6345 41.552 47.5296C42.3507 47.1856 43.1675 47.2134 43.9966 47.3649C44.1417 47.3914 44.2904 47.3902 44.4351 47.3614C45.2487 47.1929 45.9828 47.4027 46.6837 47.82C46.8338 47.9069 46.9973 47.9666 47.167 47.9965C47.7648 48.1053 48.2209 48.4777 48.62 48.8934C49.1411 49.4363 49.5251 50.0766 49.6534 50.862C49.827 51.9238 49.4766 52.8105 48.8279 53.5891C48.4762 54.0113 48.0668 54.3843 47.6687 54.763C47.042 55.3591 46.9096 56.2247 47.3688 57.0018C47.0425 57.0351 46.7378 57.07 46.4322 57.0965C45.2861 57.196 44.1398 57.294 42.9934 57.3906C42.9467 57.3917 42.9003 57.3975 42.8546 57.4077C42.2511 57.5849 42.0969 57.5038 42.2381 56.8965C42.3819 56.2779 42.0555 56.0162 41.6741 55.7341C41.3544 55.4977 41.0209 55.4437 40.6038 55.4682C39.831 55.5064 39.0565 55.4614 38.2929 55.3338C37.9655 55.2818 37.6679 54.9815 37.3744 54.7683C37.1134 54.5789 36.8768 54.3538 36.6294 54.1444L36.6297 53.4194ZM47.1462 48.5538C46.8179 49.4029 46.3974 50.1388 46.3844 51.0388C46.3788 51.4302 46.1966 51.8289 46.051 52.2063C45.8827 52.655 45.683 53.0905 45.4533 53.5093C45.2508 53.8565 45.0156 54.1824 44.7512 54.4823C44.6234 54.632 44.4062 54.7479 44.2376 54.5144C44.0827 54.2995 44.2319 54.164 44.3791 53.9971C45.1107 53.168 45.5263 52.136 45.7594 51.0872C45.9347 50.299 46.0551 49.5077 46.4095 48.7807C46.5433 48.5067 46.5102 48.3135 46.2326 48.2145C45.881 48.0891 45.5242 47.9456 45.1592 47.9014C44.5126 47.8231 44.4701 47.8954 44.563 48.5483C44.5701 48.596 44.5667 48.6458 44.5779 48.6922C44.7469 49.3881 44.9248 50.0823 45.0794 50.7817C45.1052 50.8987 45.0698 51.0971 44.9918 51.1528C44.91 51.2114 44.683 51.1939 44.625 51.1209C44.4828 50.948 44.3816 50.7435 44.3293 50.5235C44.1738 49.7572 44.0557 48.983 43.9134 48.2138C43.8942 48.1098 43.8335 47.9469 43.7647 47.9301C43.0385 47.7526 42.3281 47.7778 41.646 48.1424C41.4715 48.2357 41.2587 48.2491 41.0713 48.3213C40.829 48.4147 40.5726 48.4971 40.3639 48.6463C40.1808 48.7772 40.1668 48.987 40.3694 49.1609C40.8079 49.5379 41.2037 49.9884 41.6896 50.2811C42.2286 50.6016 42.6824 51.0541 43.0108 51.5985C43.3036 52.0769 43.5572 52.5805 43.8363 53.068C43.9519 53.27 44.003 53.4643 43.767 53.5905C43.5557 53.7034 43.42 53.5734 43.3191 53.3781C43.132 53.016 42.9635 52.6381 42.7332 52.3066C42.4228 51.8599 42.1326 51.3381 41.7051 51.0512C41.0109 50.5851 40.3511 50.1069 39.814 49.4545C39.7408 49.3653 39.6385 49.3066 39.5263 49.2895C39.0703 49.2613 38.4748 49.8235 38.4273 50.2958C38.4085 50.4829 38.4613 50.564 38.6563 50.6186C39.0359 50.7253 39.4309 50.836 39.761 51.0438C39.9603 51.1693 40.0728 51.4707 40.1725 51.7154C40.2022 51.7884 40.0692 52.0182 39.9886 52.0313C39.8775 52.0493 39.7289 51.9501 39.6275 51.8628C39.5453 51.792 39.5336 51.6259 39.4485 51.5688C38.9027 51.2031 38.3111 51.041 37.684 51.3079C37.5561 51.3623 37.4244 51.5649 37.4089 51.712C37.3636 52.143 37.7603 52.5127 38.1741 52.5712C38.7989 52.6533 39.4178 52.7779 40.0266 52.9441C40.2433 53.0057 40.4368 53.2471 40.5778 53.4524C40.6348 53.5355 40.5231 53.7414 40.4882 53.8914C40.3444 53.8567 40.2041 53.8084 40.0689 53.747C39.9411 53.6756 39.8478 53.4981 39.7203 53.4738C39.0786 53.3518 38.4328 53.2413 37.7838 53.1838C37.6434 53.1715 37.3941 53.3723 37.3583 53.5178C37.3247 53.6542 37.4937 53.857 37.6003 54.0107C37.6637 54.1019 37.776 54.1585 37.8705 54.2244C38.0843 54.3736 38.2827 54.5865 38.5194 54.6534C39.348 54.8879 40.1954 54.7724 41.0375 54.718C41.1744 54.7014 41.3132 54.7234 41.4389 54.7818C42.0837 55.1567 42.6978 55.5744 43.1799 56.1719C43.2274 56.2266 43.2848 56.2712 43.3491 56.303C43.4133 56.3347 43.483 56.3531 43.5541 56.3571C44.2692 56.3391 44.9836 56.2958 45.6977 56.2495C45.7961 56.2442 45.8886 56.1989 45.9546 56.1235C46.3362 55.548 46.7006 54.9606 47.078 54.3821C47.1531 54.2755 47.2423 54.1803 47.3432 54.0994C47.6043 53.8758 47.8888 53.679 48.1344 53.4389C48.8617 52.729 49.3275 51.8871 49.0738 50.8239C48.8221 49.7685 48.1485 49.0451 47.1462 48.5538Z" fill="#EF6926"/>
  <path d="M47.1461 48.5537C48.1484 49.0449 48.8221 49.7684 49.0739 50.8243C49.3274 51.8874 48.8618 52.7293 48.1345 53.4392C47.8889 53.679 47.6044 53.8762 47.3432 54.0997C47.2424 54.1807 47.1531 54.2758 47.0781 54.3824C46.7006 54.9609 46.3362 55.5484 45.9547 56.1239C45.8886 56.1992 45.7962 56.2445 45.6977 56.2498C44.9837 56.2961 44.2692 56.3395 43.5542 56.3574C43.483 56.3535 43.4133 56.3351 43.3491 56.3033C43.2849 56.2715 43.2274 56.227 43.18 56.1722C42.6978 55.5748 42.0837 55.157 41.4389 54.7821C41.3132 54.7238 41.1745 54.7017 41.0375 54.7184C40.1952 54.7727 39.348 54.8883 38.5195 54.6538C38.2827 54.5868 38.0844 54.3739 37.8705 54.2247C37.776 54.1588 37.6635 54.1022 37.6004 54.0111C37.4938 53.8571 37.3248 53.6543 37.3583 53.5181C37.3941 53.3728 37.6434 53.1719 37.7838 53.1842C38.433 53.2413 39.0789 53.3518 39.7203 53.4741C39.8479 53.4984 39.9412 53.6759 40.069 53.7474C40.2041 53.8087 40.3445 53.857 40.4883 53.8917C40.5235 53.7417 40.6349 53.5358 40.5778 53.4528C40.437 53.2475 40.2433 53.006 40.0267 52.9444C39.4178 52.7782 38.799 52.6537 38.1741 52.5716C37.7604 52.513 37.3636 52.1433 37.409 51.7123C37.4245 51.5653 37.5562 51.3626 37.684 51.3082C38.3111 51.0414 38.9028 51.2035 39.4485 51.5692C39.5337 51.6262 39.5453 51.7924 39.6275 51.8631C39.7289 51.9501 39.8775 52.0496 39.9886 52.0316C40.0693 52.0185 40.2023 51.7887 40.1726 51.7157C40.0729 51.471 39.9603 51.1697 39.761 51.0441C39.4311 50.8362 39.0357 50.7256 38.6563 50.6189C38.4614 50.5642 38.4085 50.4833 38.4273 50.2961C38.4748 49.8238 39.0704 49.2617 39.5263 49.2898C39.6385 49.3069 39.7408 49.3656 39.814 49.4548C40.3511 50.1073 41.0111 50.5857 41.7051 51.0515C42.1324 51.3384 42.4226 51.8602 42.7332 52.307C42.9636 52.6384 43.1321 53.0163 43.3191 53.3784C43.4201 53.5741 43.5561 53.7037 43.767 53.5908C44.003 53.4646 43.952 53.2703 43.8363 53.0683C43.5573 52.5808 43.3036 52.0773 43.0109 51.5988C42.6824 51.0545 42.2286 50.602 41.6896 50.2814C41.2037 49.9887 40.808 49.5383 40.3695 49.1613C40.1671 48.9873 40.1806 48.7776 40.364 48.6466C40.5726 48.4975 40.8287 48.4146 41.0713 48.3216C41.2586 48.2491 41.4716 48.236 41.646 48.1427C42.3282 47.7778 43.0386 47.7529 43.7647 47.9304C43.8336 47.9472 43.8942 48.1102 43.9134 48.2141C44.0558 48.9833 44.174 49.7576 44.3293 50.5238C44.3816 50.7438 44.4829 50.9484 44.6251 51.1213C44.683 51.1942 44.91 51.2117 44.9918 51.1531C45.0699 51.0974 45.1053 50.899 45.0794 50.7821C44.9245 50.0826 44.7467 49.3887 44.578 48.6925C44.5667 48.6461 44.5699 48.5963 44.5631 48.5486C44.4701 47.8957 44.5126 47.8237 45.1593 47.9017C45.5243 47.9459 45.8811 48.0894 46.2326 48.2148C46.5102 48.3138 46.5432 48.507 46.4095 48.781C46.0549 49.5081 45.9347 50.2994 45.7594 51.0875C45.5261 52.1363 45.1105 53.1684 44.3792 53.9974C44.2319 54.1642 44.0824 54.2998 44.2376 54.5147C44.4062 54.7482 44.6234 54.6323 44.7513 54.4826C45.0157 54.1827 45.2508 53.8569 45.4534 53.5097C45.683 53.0908 45.8828 52.6553 46.0511 52.2066C46.1966 51.8291 46.3788 51.431 46.3844 51.0391C46.3973 50.1386 46.8178 49.4027 47.1461 48.5537Z" fill="#F3D500"/>
  <path d="M60.8162 51.0132C60.0433 51.0077 59.2825 51.0221 58.5312 50.7533C57.3671 50.3368 56.4116 49.6152 55.636 48.665C55.068 47.9697 54.6394 47.1645 54.5117 46.2346C54.4402 45.7136 54.3844 45.1904 54.3216 44.668C54.2997 43.6956 54.483 42.7627 54.7418 41.8466C55.1361 40.4503 55.7758 39.1975 56.884 38.2503C58.1712 37.1503 59.5983 36.3761 61.3145 36.3254C61.5957 36.3221 61.8763 36.3537 62.1502 36.4197C62.8255 36.5719 62.906 36.8082 62.5885 37.4329C62.3653 37.8536 62.1825 38.2957 62.0427 38.7529C61.6299 40.1997 62.0849 41.4337 63.2957 42.2651C64.4818 43.0795 65.3167 44.1667 65.625 45.6133C65.8843 46.8304 65.8726 48.0337 65.1119 49.101C64.9788 49.2845 64.823 49.4492 64.6483 49.5909C63.5392 50.4999 62.2932 51.013 60.8586 51.013L60.8162 51.0132ZM60.9524 36.7707C60.4183 36.838 59.8632 36.8805 59.3651 37.0683C58.0996 37.5456 57.1292 38.4588 56.2885 39.5154C55.71 40.2426 55.366 41.1071 55.1297 42.0005C54.672 43.7336 54.8354 45.4323 55.5404 47.0727C55.8524 47.7985 56.3745 48.3313 56.9567 48.8532C57.7234 49.538 58.648 50.0089 59.642 50.2209C61.0188 50.5319 62.3621 50.3948 63.6277 49.7051C64.4416 49.2617 65.0768 48.6651 65.2925 47.6948C65.4732 46.8812 65.5194 46.071 65.162 45.2969C64.6479 44.1832 63.8006 43.4322 62.7145 42.9265C61.3953 42.3121 59.7246 42.6788 59.0457 44.0725C58.5508 45.0879 58.6308 45.9363 59.2965 46.7131C59.8528 47.3626 60.6322 47.612 61.4609 47.3645C62.1416 47.161 62.7073 46.5805 62.6215 45.74C62.6137 45.5985 62.613 45.4566 62.6195 45.315L62.7045 45.2632C62.7675 45.3294 62.8747 45.3882 62.8864 45.4628C62.971 45.9992 62.9217 46.5699 62.6048 46.9691C62.3442 47.2978 61.8845 47.4941 61.4776 47.6529C61.2339 47.7479 61.1219 47.7948 61.115 48.0906C61.0963 48.8779 60.5626 49.3002 59.8646 49.177C60.1267 49.0694 60.4662 48.9981 60.7216 48.8073C61.0282 48.5782 61.0183 48.1869 60.9806 47.798C59.1967 47.6448 58.3907 46.571 58.386 44.788C58.1649 44.788 58.0103 44.8098 57.8639 44.7839C57.4468 44.7096 56.9828 44.7384 56.7125 44.2999C57.1651 44.5849 57.6761 44.6396 58.188 44.7059C58.4219 44.7363 58.5146 44.6723 58.5769 44.4311C58.6773 44.0433 58.8288 43.6738 59.1383 43.3918C59.3989 43.1542 59.6346 42.8871 59.8327 42.683C59.4465 42.4214 59.0549 42.2517 58.794 41.9586C58.3179 41.4239 58.0715 39.7096 58.2794 39.0221C58.3343 39.6032 58.3615 40.2171 58.4571 40.8198C58.5679 41.5181 58.8036 42.1721 59.5735 42.3639C60.1806 42.5149 60.789 42.414 61.4421 42.2166C61.3024 42.0264 61.1065 41.9091 60.9547 41.7476C60.7464 41.542 60.5661 41.3084 60.4185 41.0531C60.1349 40.5135 60.3245 39.9554 60.5092 39.4495C60.7585 38.7667 61.1115 38.1246 61.406 37.4585C61.5602 37.1099 61.3646 36.7666 61.0207 36.7666C60.9979 36.7666 60.9751 36.7679 60.9524 36.7707ZM57.1436 48.0137C57.4171 47.9821 57.6904 47.9479 57.9642 47.9194C58.6434 47.8481 58.7912 47.7173 58.9309 47.0559C58.9694 47.136 58.9897 47.2241 58.9904 47.3135C58.991 47.4028 58.9719 47.4912 58.9346 47.5719C58.8973 47.6525 58.8426 47.7234 58.7748 47.7792C58.707 47.835 58.6278 47.8742 58.5431 47.8939C58.0917 48.0109 57.6192 48.041 57.1558 48.1089L57.1436 48.0137ZM56.6949 44.2891L56.702 44.2828L56.6949 44.2891L56.6902 44.2726L56.7018 44.2828C56.7052 44.2886 56.7088 44.2944 56.7122 44.3001L56.6949 44.2891ZM56.2165 42.6197C56.3751 43.1729 56.533 43.7238 56.6902 44.2725C56.1779 43.8168 56.2542 43.2028 56.2167 42.6197H56.2165Z" fill="#16A0C7"/>
  <path d="M56.7017 44.283C56.9704 44.7397 57.4411 44.709 57.8636 44.7842C58.01 44.8103 58.1646 44.7884 58.3858 44.7884C58.3904 46.5716 59.1965 47.6451 60.9804 47.7984C61.018 48.1872 61.0279 48.5785 60.7213 48.8077C60.466 48.9984 60.1264 49.0696 59.8644 49.1774C60.5623 49.3006 61.0961 48.8781 61.1145 48.091C61.1216 47.7951 61.2334 47.7483 61.4771 47.6533C61.884 47.4945 62.3433 47.2981 62.6043 46.9695C62.9212 46.5703 62.9705 45.9995 62.886 45.4632C62.8742 45.3885 62.7671 45.3297 62.704 45.2635L62.619 45.3154C62.6126 45.457 62.6132 45.5988 62.6211 45.7404C62.7067 46.5808 62.1412 47.1612 61.4604 47.3649C60.6318 47.6127 59.8526 47.363 59.296 46.7135C58.6304 45.9366 58.5503 45.0882 59.0452 44.0728C59.7244 42.6791 61.3952 42.3125 62.714 42.9268C63.8001 43.4326 64.6475 44.1836 65.1615 45.2973C65.519 46.0717 65.4728 46.8816 65.292 47.6952C65.0764 48.6654 64.4411 49.262 63.6272 49.7054C62.3616 50.3948 61.0183 50.5322 59.6415 50.2211C58.6475 50.0092 57.723 49.5383 56.9564 48.8534C56.3741 48.3315 55.852 47.7987 55.54 47.0729C54.835 45.4326 54.6713 43.7339 55.1293 42.0008C55.3655 41.1074 55.7096 40.2429 56.288 39.5157C57.1287 38.459 58.0991 37.5458 59.3646 37.0686C59.8628 36.8808 60.4179 36.8383 60.9519 36.771C61.3375 36.7224 61.5696 37.0874 61.4054 37.4585C61.1109 38.1246 60.7576 38.7667 60.5086 39.4495C60.3239 39.9554 60.1344 40.5135 60.418 41.0531C60.5656 41.3084 60.7459 41.5421 60.9542 41.7477C61.1059 41.9091 61.3019 42.0264 61.4416 42.2167C60.7885 42.414 60.1801 42.5149 59.573 42.3639C58.8032 42.1725 58.5674 41.5184 58.4566 40.8199C58.3611 40.2175 58.3338 39.6036 58.279 39.0221C58.0711 39.7098 58.3175 41.424 58.7935 41.9586C59.0541 42.2517 59.446 42.4215 59.8323 42.6831C59.6342 42.8871 59.3987 43.1543 59.1379 43.3918C58.828 43.6738 58.6768 44.0434 58.5764 44.4312C58.514 44.6724 58.4215 44.7363 58.1874 44.706C57.669 44.6386 57.1516 44.5834 56.6945 44.2888L56.2161 42.6194C56.2542 43.2073 56.1765 43.8261 56.7017 44.283ZM57.1436 48.0138L57.1557 48.1086C57.6191 48.0408 58.0917 48.0106 58.543 47.8936C58.6276 47.8739 58.7069 47.8347 58.7747 47.7789C58.8425 47.7232 58.8971 47.6523 58.9345 47.5716C58.9718 47.4909 58.9909 47.4026 58.9902 47.3132C58.9896 47.2239 58.9693 47.1358 58.9308 47.0557C58.7911 47.717 58.6432 47.8479 57.9641 47.9192C57.6904 47.948 57.4173 47.9821 57.1436 48.0138Z" fill="#2E376A"/>
  <path d="M37.7758 47.416C36.848 48.0974 35.7818 48.2206 34.6888 48.2103C33.2703 48.1968 31.852 48.1629 30.4335 48.1426C30.2578 48.1395 30.0823 48.1531 29.909 48.1834C29.1166 48.3251 28.8846 48.9846 29.3734 49.6657C29.9563 50.478 30.5508 51.2828 31.1022 52.1175C31.9222 53.3585 32.728 54.6141 33.2539 56.0251C33.3885 56.3864 33.4229 56.7902 33.4792 57.1782C33.5197 57.4566 33.372 57.5882 33.1001 57.6204C32.6016 57.6857 32.0961 57.5782 31.6636 57.3148C31.2876 57.1006 30.9255 56.8615 30.5796 56.5992C30.4253 56.4765 30.3578 56.2405 30.2446 56.0602C29.4086 54.7287 28.5849 53.3887 27.7278 52.0717C27.3201 51.4453 26.8775 50.8322 26.1978 50.4727C25.9737 50.3541 25.7882 50.3893 25.5499 50.5218C24.4904 51.1107 23.9153 52.1294 23.3093 53.1181C22.643 54.2049 22.0315 55.3279 21.3505 56.4045C20.9452 57.0453 20.5341 57.7231 19.8385 58.0742C19.5679 58.2109 19.2101 58.1936 18.8934 58.1863C18.803 58.1842 18.6485 57.9756 18.6403 57.8533C18.5743 56.8763 18.7682 55.931 19.0301 54.999C19.4838 53.3837 19.9467 51.7711 20.3977 50.155C20.4646 49.9153 20.4659 49.6561 20.5351 49.4174C20.6407 49.0525 20.4576 48.8644 20.1755 48.7464C18.928 48.2245 17.6706 47.7275 16.4284 47.193C15.1412 46.6392 13.8567 46.0759 12.5944 45.4655C12.2282 45.2884 11.9023 44.9715 11.6292 44.6536C11.2545 44.2174 11.37 43.8432 11.8994 43.6617C12.1644 43.5713 12.4404 43.5193 12.7193 43.5073C14.2444 43.4448 15.752 43.6306 17.259 43.8503C18.7237 44.064 20.1932 44.2403 21.6619 44.4224C21.8536 44.4461 22.0527 44.4069 22.283 44.395C22.3745 43.7654 22.4461 43.1004 22.5707 42.4461C22.8473 40.9944 22.9613 39.5054 23.4895 38.1104C23.7443 37.4376 24.0674 36.8089 24.6074 36.3247H25.1003C25.4539 36.613 25.7044 37.0142 25.8124 37.4651C26.1374 38.7151 26.1368 39.9815 26.0316 41.2568C26.0181 41.4205 26.0003 41.6124 26.0661 41.7497C26.4775 42.6089 26.837 43.5257 27.8643 43.8223C27.9098 43.8362 27.951 43.8619 27.9841 43.8969C28.3395 44.2779 28.8156 44.3776 29.2857 44.436C30.4417 44.5797 31.6057 44.6574 32.7596 44.815C33.8825 44.9685 34.9735 45.285 35.9439 45.9029C36.5837 46.3104 37.1673 46.8114 37.7761 47.2706L37.7758 47.416ZM17.882 46.255C17.7209 46.255 17.6391 46.231 17.5833 46.2601C17.4756 46.3162 17.353 46.3847 17.2973 46.4841C17.2732 46.5272 17.3801 46.6902 17.4616 46.7451C17.6415 46.8663 17.8437 46.9518 18.0353 47.0548C18.2852 47.1892 18.4243 47.0593 18.5185 46.8378C18.6226 46.5929 18.5523 46.4146 18.2992 46.3406C18.1617 46.3047 18.0224 46.2761 17.882 46.255ZM34.6692 46.833C34.3707 46.6015 34.1148 46.3563 33.8143 46.205C33.7448 46.17 33.5226 46.4567 33.3741 46.5924C33.8109 47.1369 34.1338 47.2063 34.6692 46.833ZM14.5927 45.9341L14.6819 45.8327C14.6142 45.2938 14.1264 45.2261 13.7489 45.057C13.5566 44.9709 13.3082 44.7901 13.0895 45.1575L14.5927 45.9341ZM15.6718 45.3406L15.7485 45.2364C15.65 44.6013 15.0608 44.6169 14.6326 44.4218C14.4616 44.3439 14.2831 44.2851 14.1641 44.5816L15.6718 45.3406ZM22.4398 50.2602C21.99 50.7761 21.932 51.4333 21.7673 52.037H22.3505C22.2625 51.9261 22.1831 51.8082 22.1129 51.6845C22.0627 51.5742 22.001 51.4343 22.0297 51.3331C22.0496 51.2627 22.2104 51.2113 22.3146 51.1953C22.4543 51.1821 22.5948 51.1801 22.7348 51.1895C22.6279 50.8518 22.5386 50.5698 22.44 50.2601L22.4398 50.2602ZM20.2327 56.4485C20.0402 56.3512 19.9312 56.2456 19.85 56.265C19.6451 56.3135 19.4072 56.3721 19.2708 56.5157C19.174 56.6172 19.5334 57.1173 19.6304 57.0501C19.8302 56.9112 19.9852 56.7041 20.233 56.4484L20.2327 56.4485ZM24.9825 43.6861C25.1554 44.0489 25.2883 44.3276 25.4212 44.6067L25.5428 44.5758C25.583 44.4572 25.6752 44.3278 25.6544 44.2219C25.5714 43.7995 25.2536 43.5763 24.9067 43.3871C24.8504 43.5035 24.7917 43.6186 24.739 43.7366C24.6844 43.859 24.6358 43.9842 24.5846 44.1081L24.6446 44.14L24.9825 43.6861ZM20.9545 49.7322C20.8401 49.8874 20.7222 50.0476 20.6036 50.2083C21.2073 50.6572 21.3466 50.6215 21.5741 49.9783L20.9545 49.7322ZM23.7126 45.8414C23.779 45.6601 23.8361 45.5039 23.8924 45.35C23.4036 45.0818 23.0799 45.0556 22.9055 45.2848L23.7126 45.8414ZM30.1192 52.6354L30.9156 52.536C30.9245 52.5057 30.9333 52.4754 30.9421 52.4451L30.0173 51.8844C30.0601 52.2006 30.0864 52.394 30.1192 52.6352L30.1192 52.6354ZM25.5572 40.0336C25.8206 39.5508 25.7109 39.3214 25.1743 39.1881C25.0612 39.4873 25.1836 39.7691 25.5571 40.0334L25.5572 40.0336ZM26.263 49.2782C26.0851 49.1121 25.9694 48.9547 25.8166 48.8904C25.7682 48.8701 25.6211 49.0984 25.5192 49.2129C25.6735 49.3434 25.8352 49.4643 26.0034 49.5748C26.0215 49.5856 26.1403 49.4203 26.2629 49.278L26.263 49.2782ZM20.0492 52.5377C19.9263 52.9205 19.8155 53.2657 19.6813 53.6839C20.257 53.4551 20.3573 53.0838 20.0491 52.5376L20.0492 52.5377ZM23.3589 48.6044L22.7559 48.1992L22.6854 48.2422L22.9468 49.1221L23.3589 48.6044ZM21.0544 47.6838C20.7501 47.2343 20.5563 47.1653 20.2274 47.3729C20.4283 47.6724 20.6417 47.9801 21.0542 47.6837L21.0544 47.6838ZM27.948 47.9927C27.8958 47.4621 27.7781 47.321 27.3804 47.2543C27.3999 47.4377 27.4196 47.6237 27.4413 47.8278L27.948 47.9927ZM24.9986 36.7323L24.8437 36.771C24.8648 36.9394 24.8386 37.1377 24.9175 37.2693C25.0412 37.4753 25.232 37.4548 25.4449 37.2192L24.9986 36.7323ZM18.6523 45.0933L18.7395 44.9898C18.6501 44.9038 18.5674 44.7556 18.4697 44.7442C18.2364 44.7171 17.962 44.6535 17.772 44.986L18.6523 45.0933ZM25.6771 45.8959L25.5685 45.8938C25.528 46.1082 25.4519 46.3252 25.4664 46.5357C25.4713 46.6077 25.7029 46.6633 25.831 46.7265L25.9079 46.6409C25.8306 46.3924 25.7536 46.1441 25.6768 45.8959L25.6771 45.8959ZM28.5623 49.878L28.6999 49.8332C28.6717 49.6658 28.6936 49.4533 28.6008 49.3438C28.5128 49.2398 28.305 49.2435 28.1495 49.2L28.0995 49.3292L28.5623 49.878ZM31.7548 45.5136C31.7783 45.4637 31.802 45.4138 31.8258 45.3639L31.524 44.9851L31.1538 45.2613L31.163 45.3797L31.7548 45.5136ZM20.777 54.0043C20.6784 54.3998 20.9402 54.5271 21.1453 54.7727C21.1989 54.377 21.109 54.1502 20.7768 54.0043L20.777 54.0043ZM24.8108 41.7455C24.6965 41.9286 24.595 42.0912 24.433 42.3505L25.0306 42.249L24.8108 41.7455ZM32.5547 56.4474L31.9427 56.481C32.2257 56.8416 32.3281 56.8517 32.5545 56.4473L32.5547 56.4474ZM23.8761 46.7933C23.6507 46.5276 23.4817 46.3285 23.2737 46.0829C23.2357 46.5665 23.5119 46.6625 23.8761 46.7933Z" fill="#BF1717"/>
  <path d="M17.8825 46.2544C18.0229 46.2756 18.1622 46.3042 18.2998 46.3401C18.5528 46.4141 18.6231 46.5924 18.519 46.8373C18.4249 47.0588 18.2857 47.1887 18.0359 47.0543C17.8443 46.9513 17.642 46.8659 17.4622 46.7446C17.3807 46.6896 17.2738 46.5266 17.2979 46.4836C17.3535 46.3842 17.4761 46.3157 17.5839 46.2596C17.6395 46.2304 17.7213 46.2544 17.8825 46.2544Z" fill="#EF6926"/>
  <path d="M34.6697 46.8322C34.1345 47.2055 33.8114 47.136 33.3745 46.5915C33.5231 46.4559 33.7453 46.1692 33.8147 46.2041C34.1153 46.3554 34.3712 46.6008 34.6697 46.8322Z" fill="#EF6926"/>
  <path d="M14.5933 45.9333L13.0901 45.1566C13.3084 44.7893 13.5572 44.97 13.7495 45.0562C14.1269 45.2252 14.6147 45.2928 14.6825 45.8318L14.5933 45.9333Z" fill="#EF6926"/>
  <path d="M15.6723 45.3399L14.1646 44.5809C14.2836 44.2844 14.4621 44.3432 14.6331 44.421C15.0612 44.6162 15.6507 44.6005 15.749 45.2356L15.6723 45.3399Z" fill="#EF6926"/>
  <path d="M22.4403 50.2598C22.5389 50.5695 22.6282 50.8515 22.7353 51.1888C22.5953 51.1794 22.4548 51.1814 22.3151 51.1947C22.2109 51.2108 22.0501 51.2622 22.0302 51.3324C22.0015 51.4339 22.0632 51.5735 22.1134 51.6838C22.1836 51.8075 22.263 51.9254 22.351 52.0364H21.7678C21.9325 51.4329 21.9906 50.7756 22.4403 50.2598Z" fill="#EF6926"/>
  <path d="M20.2333 56.4479C19.9855 56.7037 19.8305 56.9107 19.6309 57.0496C19.5339 57.1169 19.1745 56.6169 19.2713 56.5152C19.4077 56.3717 19.6456 56.313 19.8505 56.2645C19.9317 56.2452 20.0407 56.3506 20.2333 56.4479Z" fill="#EF6926"/>
  <path d="M24.9829 43.6856L24.6449 44.1392L24.585 44.1073C24.6362 43.9833 24.6847 43.8581 24.7393 43.7358C24.792 43.6178 24.8509 43.5026 24.9071 43.3862C25.2539 43.5754 25.5717 43.7987 25.6547 44.2211C25.6758 44.327 25.5834 44.4563 25.5432 44.5749L25.4215 44.6059C25.2887 44.3272 25.1558 44.0484 24.9829 43.6856Z" fill="#EF6926"/>
  <path d="M20.9545 49.7314L21.5742 49.9779C21.3467 50.6211 21.2075 50.6569 20.6038 50.2079C20.7218 50.0468 20.8401 49.8866 20.9545 49.7314Z" fill="#EF6926"/>
  <path d="M23.7129 45.8407L22.9058 45.2837C23.0801 45.055 23.4038 45.0808 23.8926 45.349C23.8364 45.5032 23.7792 45.6594 23.7129 45.8407Z" fill="#EF6926"/>
  <path d="M30.1195 52.6347C30.0867 52.3935 30.0605 52.2001 30.0176 51.8838L30.9424 52.4445C30.9335 52.4748 30.9247 52.5051 30.9158 52.5354L30.1195 52.6347Z" fill="#EF6926"/>
  <path d="M25.5571 40.0325C25.1839 39.7682 25.0612 39.4864 25.1742 39.187C25.7108 39.3204 25.8206 39.5498 25.5571 40.0325Z" fill="#EF6926"/>
  <path d="M26.2633 49.2777C26.1406 49.4199 26.0219 49.5853 26.0037 49.5743C25.8355 49.4638 25.6738 49.3429 25.5195 49.2125C25.6214 49.0979 25.7685 48.8696 25.8169 48.8899C25.9697 48.9542 26.0853 49.1116 26.2633 49.2777Z" fill="#EF6926"/>
  <path d="M20.0493 52.5371C20.3575 53.0833 20.2574 53.4547 19.6814 53.6833C19.8156 53.2651 19.9262 52.9199 20.0493 52.5371Z" fill="#EF6926"/>
  <path d="M23.3589 48.604L22.9472 49.1217L22.6858 48.2417L22.7562 48.1987L23.3589 48.604Z" fill="#EF6926"/>
  <path d="M21.0548 47.6834C20.6423 47.9798 20.4289 47.6721 20.2278 47.3726C20.5567 47.165 20.7505 47.2341 21.0548 47.6834Z" fill="#EF6926"/>
  <path d="M27.9482 47.9923L27.4412 47.8274C27.4195 47.6232 27.3998 47.4373 27.3804 47.2539C27.7782 47.3206 27.8961 47.4617 27.9482 47.9923Z" fill="#EF6926"/>
  <path d="M24.999 36.7314L25.4449 37.2183C25.232 37.454 25.0412 37.4745 24.9176 37.2685C24.8386 37.1368 24.8647 36.9385 24.8438 36.7701L24.999 36.7314Z" fill="#EF6926"/>
  <path d="M18.6525 45.0927L17.7722 44.9853C17.9623 44.6529 18.237 44.7164 18.47 44.7435C18.5677 44.7549 18.6503 44.903 18.7398 44.9891L18.6525 45.0927Z" fill="#EF6926"/>
  <path d="M25.6773 45.8957C25.7542 46.144 25.8312 46.3923 25.9082 46.6406L25.8313 46.7262C25.7032 46.6631 25.4716 46.6075 25.4666 46.5355C25.4522 46.3252 25.5283 46.1078 25.5688 45.8936L25.6773 45.8957Z" fill="#EF6926"/>
  <path d="M28.5624 49.8772L28.0996 49.3284L28.1495 49.1992C28.3048 49.2427 28.5129 49.2391 28.6009 49.343C28.6937 49.4526 28.6718 49.665 28.6999 49.8325L28.5624 49.8772Z" fill="#EF6926"/>
  <path d="M31.7548 45.5131L31.163 45.3794L31.1538 45.2611L31.524 44.9849L31.8257 45.3635C31.8022 45.4134 31.7785 45.4632 31.7548 45.5131Z" fill="#EF6926"/>
  <path d="M20.7772 54.0044C21.1097 54.1503 21.1993 54.3771 21.1455 54.7728C20.9405 54.5271 20.6789 54.3998 20.7772 54.0044Z" fill="#EF6926"/>
  <path d="M24.8107 41.7446L25.0304 42.2484L24.4329 42.3498C24.5948 42.0903 24.6964 41.9277 24.8107 41.7446Z" fill="#EF6926"/>
  <path d="M32.5549 56.4473C32.3285 56.8514 32.2261 56.8415 31.9429 56.4809L32.5549 56.4473Z" fill="#EF6926"/>
  <path d="M23.8764 46.7929C23.5122 46.6624 23.2361 46.5662 23.274 46.0825C23.4825 46.3281 23.6511 46.5272 23.8764 46.7929Z" fill="#EF6926"/>
</svg>