<svg xmlns="http://www.w3.org/2000/svg" width="72" height="62" viewBox="0 0 72 62" fill="none">
  <path d="M43.7994 45.7918C46.6737 42.1545 48.8116 38.189 49.8424 33.6039L49.0641 33.6855C49.0095 33.0221 48.9803 32.3816 49.2236 31.7703C49.4532 31.1931 50.0103 31.0856 50.5269 30.9452C50.7589 30.8822 51.0031 30.8626 51.2771 30.8175C51.2771 30.0219 51.1968 29.2315 51.2947 28.4638C51.4616 27.0894 51.6995 25.7246 52.0076 24.3749C52.2813 23.2094 53.1457 22.4717 54.2058 21.9896C55.7431 21.2905 57.2966 21.145 58.8226 22.0237C59.9232 22.6574 60.4941 23.6872 60.9043 24.9692C60.0594 25.4652 59.2302 25.9464 58.4073 26.4381C58.1547 26.5888 57.9994 26.5202 57.8339 26.2948C57.4618 25.7884 57.0156 25.3736 56.3637 25.2514C55.8878 25.1622 55.4296 25.4888 55.0901 25.8256C54.2028 26.706 54.3898 27.8442 54.2249 28.8991C54.1656 29.278 54.1566 29.6643 54.1205 30.0972L55.9986 29.8484C55.9455 30.7076 55.895 31.5255 55.842 32.3836C55.2601 32.5151 54.6818 32.6698 54.0948 32.7696C53.6765 32.8409 53.4263 32.9752 53.254 33.4282C52.8035 34.6137 52.2575 35.763 51.7444 36.9241C50.6499 39.4017 49.5279 41.8659 48.1252 44.1895C47.8529 44.6404 47.5636 45.0832 47.2493 45.5053C47.1483 45.6411 46.9437 45.7749 46.7832 45.779C46.2942 45.7915 45.805 45.7944 45.3096 45.7944C44.8142 45.7944 44.3132 45.7918 43.7994 45.7918ZM0 42.8557C0.433122 42.1921 0.931676 41.5616 1.28629 40.8585C2.17489 39.0968 3.71866 38.4017 5.5356 38.2288C7.01819 38.0875 8.51602 38.0952 10.0077 38.0602C11.6811 38.0209 13.3553 38.0115 15.0289 37.9782C15.1941 37.969 15.3552 37.9232 15.5007 37.8442C17.1017 37.015 18.5612 35.9988 19.7356 34.6099C20.8198 33.3276 21.5593 31.885 21.5673 30.1771C21.578 27.8867 20.4452 26.2407 18.5347 25.0601C17.1928 24.2308 15.7166 24.1087 14.217 24.2623C13.238 24.3755 12.2706 24.5724 11.3253 24.8509C10.4344 25.1015 9.57856 25.4756 9.02417 26.3C8.96716 26.3851 8.83584 26.4265 8.73189 26.4716C7.82481 26.8644 6.91479 27.2504 6.00825 27.6444C5.39878 27.9092 4.9686 27.664 4.8655 26.9875C4.75444 26.2583 5.1007 25.6727 5.43838 25.0747C6.26039 23.6202 7.64266 22.9197 9.11489 22.3711C11.2406 21.5789 13.4621 21.3966 15.7136 21.429C18.0507 21.4627 20.3148 21.8334 22.442 22.8413C24.2998 23.7215 25.8689 24.9398 26.7901 26.8344C27.7964 28.9035 27.7126 31.0063 26.8597 33.0999C25.8929 35.4725 24.1851 37.2093 22.0954 38.6243C21.1182 39.2859 20.0319 39.6956 18.9663 40.1726C17.3072 40.9151 15.5615 41.0174 13.8026 41.0562C12.9923 41.074 12.1815 41.061 11.3708 41.048C10.6613 41.0365 9.95182 41.0248 9.24274 41.0344C7.10807 41.0624 4.97255 41.1206 2.89457 41.701C1.92314 41.9724 1.00221 42.3561 0.174177 42.9431C0.119113 42.9726 0.0606103 42.9952 0 43.0104L0 42.8557ZM6.94046 37.0348C7.10374 36.3774 7.26306 35.7377 7.42162 35.0979C7.88413 33.2314 8.34262 31.3639 8.81611 29.5002C8.85656 29.3327 8.95569 29.1851 9.09555 29.0843C10.2931 28.3829 11.5024 27.7019 12.7092 27.0162C12.7729 26.9857 12.8383 26.9589 12.9051 26.9359C12.4581 28.6511 12.0207 30.3336 11.5811 32.0155C11.2022 33.4645 10.8273 34.9146 10.433 36.3594C10.3947 36.4998 10.2453 36.6985 10.1264 36.7145C9.13338 36.8482 8.13557 36.9459 7.13893 37.0525C7.13122 37.0533 7.12347 37.0537 7.11572 37.0537C7.07303 37.0537 7.02369 37.0427 6.94046 37.0348ZM68.8392 36.3556C68.6732 36.2755 68.5345 36.1194 68.4117 35.9728C67.9603 35.433 67.6432 35.4663 67.0468 35.7665C65.8363 36.3759 64.6054 36.4125 63.3433 36.0394C61.2992 35.4352 59.8979 33.6134 59.8233 31.3345C59.7606 29.4193 60.8045 27.5882 62.7667 26.7011C65.1075 25.6427 67.6934 26.4111 69.1729 28.5092C69.5713 29.0744 69.3922 29.6008 69.3436 30.1628C69.2463 31.288 69.1313 32.4128 69.0761 33.5404C69.038 34.317 69.5416 34.7083 70.303 34.5948C70.4902 34.5668 70.6851 34.5907 70.9002 34.5907C70.9819 34.9495 70.7858 35.1413 70.5764 35.3138C70.1518 35.6636 69.7273 36.0151 69.2807 36.3347C69.209 36.3776 69.1264 36.3985 69.0431 36.395C68.9731 36.3966 68.9035 36.3831 68.8392 36.3556ZM64.3021 28.7463C63.488 28.9261 62.5299 30.2986 62.6353 31.3792C62.6073 32.0326 62.8052 32.6757 63.1957 33.2003C63.6907 33.8718 64.3534 34.1985 65.1996 34.0944C66.0484 33.9899 66.5315 33.4757 66.7264 32.6767C66.9608 31.716 66.8656 30.7639 66.5645 29.8325C66.2962 29.0029 65.7054 28.668 64.9672 28.6679C64.7434 28.6699 64.5204 28.6963 64.3022 28.7464L64.3021 28.7463ZM44.0044 36.2769C43.2506 35.9515 42.7288 34.9965 42.8688 34.1915C43.1637 32.4988 43.4656 30.806 43.8293 29.1272C44.0403 28.1533 44.3784 27.207 44.6569 26.2476C44.7384 25.9667 44.8706 25.8503 45.2069 25.8812C45.8595 25.941 46.5194 25.9171 47.1761 25.9338C47.3519 25.9384 47.5271 25.9641 47.7246 25.9821C47.3964 26.9246 47.0485 27.8189 46.7745 28.7355C46.3529 30.1461 45.9619 31.5657 45.6015 32.9944C45.5058 33.3706 45.5335 33.7841 45.545 34.1795C45.5557 34.545 45.8018 34.7173 46.1466 34.664C46.4705 34.6139 46.7841 34.4975 47.169 34.3919C46.5277 35.204 46.0275 36.1363 44.9266 36.3641C44.8241 36.3847 44.7197 36.3949 44.6152 36.3945C44.4058 36.3962 44.1982 36.3562 44.0044 36.2769ZM38.5973 36.0876C38.4896 35.9958 38.3851 35.8999 38.2832 35.8014C37.7377 35.275 37.5131 35.2174 36.8324 35.5722C36.1138 35.9469 35.3587 36.0672 34.5624 36.0523C31.8774 36.0028 29.6404 33.7187 29.6701 31.0473C29.7015 28.2351 31.9212 25.9934 34.7368 26.0179C36.7112 26.0352 38.2347 26.9239 39.2208 28.6631C39.2864 28.7956 39.3128 28.9441 39.2967 29.0911C39.1722 30.4593 39.0011 31.8243 38.9152 33.1948C38.8575 34.1158 39.3366 34.4787 40.261 34.3654C40.4215 34.3458 40.594 34.4238 40.761 34.4566C40.696 34.6282 40.6654 34.8273 40.557 34.9645C40.4248 35.1318 40.228 35.2483 40.0573 35.3847C39.7613 35.6215 39.4507 35.8422 39.1714 36.097C39.0993 36.1735 39.0007 36.2195 38.8958 36.2257C38.783 36.2167 38.6771 36.1677 38.5973 36.0876ZM33.8835 28.6448C32.9408 29.192 32.4732 30.0608 32.4754 31.3552C32.4564 31.8048 32.6451 32.3798 32.9941 32.9084C33.4782 33.6417 34.309 34.0101 35.1146 33.8689C36.0136 33.7113 36.4393 33.132 36.6111 32.2841C36.7923 31.3904 36.6934 30.5212 36.4241 29.6668C36.3175 29.306 36.0981 28.9887 35.798 28.7617C35.498 28.5346 35.1331 28.4096 34.7569 28.405C34.4496 28.4061 34.1482 28.489 33.8835 28.6451V28.6448ZM46.1078 24.1583C45.6532 24.0321 45.2437 23.8342 45.0034 23.395C44.7796 22.986 44.8114 22.6525 45.1086 22.2949C45.5082 21.814 46.1545 21.5651 47.0147 21.5613C47.6334 21.5602 48.2124 21.6904 48.6973 22.1002C49.2718 22.5858 49.2837 23.2742 48.6922 23.7419C48.2361 24.1098 47.6663 24.3075 47.0804 24.3013C46.7512 24.2979 46.4241 24.2499 46.1078 24.1585V24.1583ZM11.6857 19.2902C11.7531 18.7854 11.8665 18.2878 12.0244 17.8036C12.1362 17.462 12.2776 17.1307 12.4469 16.8136C12.8795 15.9537 12.9182 15.0061 13.0626 14.0847C13.3825 12.0442 13.6835 10.0009 13.9793 7.95654C14.1522 6.7619 14.2964 5.56315 14.4635 4.36782C14.4908 4.16438 14.5482 3.96611 14.6336 3.77947C14.8381 3.34395 15.1705 3.03249 15.673 3.04153C16.1614 3.05027 16.5031 3.33621 16.7278 3.76686C16.9753 4.24198 16.9325 4.73365 16.8294 5.23205C16.5961 6.35932 16.3635 7.48676 16.1243 8.64443H21.3985C21.3985 8.21386 21.3908 7.80487 21.4 7.39626C21.4274 6.18682 21.4589 4.97754 21.4945 3.76841C21.5095 3.26204 21.7481 2.85754 22.1239 2.53695C22.8178 1.94489 23.6057 1.61904 24.5341 1.7803C25.3457 1.9213 25.78 2.59534 25.4431 3.34194C25.1451 4.00885 24.7581 4.63233 24.2928 5.19539C23.589 6.03557 23.1643 6.92695 23.1269 8.04386C23.0733 9.65035 22.9341 11.2543 22.8149 12.8581C22.7786 13.2811 22.8754 13.7049 23.0918 14.0701C23.2071 14.2683 23.2178 14.4455 23.0542 14.6276C22.5058 15.2386 21.9838 15.8753 21.4062 16.4569C21.2243 16.6402 20.8993 16.6812 20.6397 16.7876L20.4928 16.687L20.864 10.725C20.7517 10.7151 20.6165 10.6958 20.4815 10.6926C19.2584 10.6632 18.0325 10.6789 16.8132 10.5961C15.866 10.5319 15.1601 11.4183 15.0961 12.1772C14.9448 13.9715 14.8311 15.7696 14.6995 17.5659C14.6393 18.3884 13.5486 19.8779 12.3596 19.9115C12.3448 19.9119 12.3302 19.9122 12.3158 19.9122C11.8862 19.912 11.6392 19.7239 11.6857 19.2902ZM36.2931 14.9917C36.3627 14.6291 36.4437 14.2517 36.6102 13.9276C37.086 13.0019 37.2126 11.9928 37.3441 10.9927C37.6039 9.01869 37.8269 7.03925 38.0272 5.05826C38.12 4.14151 38.1234 3.21587 38.164 2.36262C36.6983 2.36262 35.334 2.35365 33.9699 2.37128C33.7379 2.37437 33.4992 2.47059 33.278 2.55961C32.5991 2.83286 31.9318 3.14355 31.1665 2.95352C30.5125 2.7911 30.1989 2.26857 30.3663 1.61076C30.4555 1.24017 30.6675 0.910662 30.9678 0.67583C31.268 0.440998 31.6389 0.314657 32.0201 0.317354C35.358 0.310445 38.6959 0.302711 42.0337 0.294151C43.7468 0.2875 45.46 0.264529 47.1729 0.247127C47.694 0.241867 47.9659 0.605303 47.7701 1.08738C47.493 1.76994 46.3944 2.72319 45.4861 2.71383C44.0953 2.69945 42.7042 2.68166 41.3134 2.68173C41.1142 2.67468 40.9166 2.71988 40.7403 2.81286C40.564 2.90583 40.4151 3.04333 40.3085 3.21169C40.1251 3.48711 39.8866 3.72564 39.6999 3.9992C39.2062 4.7229 39.2769 5.5736 39.2209 6.38392C39.0984 8.15508 39.0175 9.93003 38.927 11.7037C38.8994 12.244 38.8865 12.7848 38.8883 13.3263C38.8883 13.4578 38.9579 13.5943 39.0138 13.7208C39.3799 14.5465 39.4764 15.3527 38.843 16.1034C38.548 16.4518 38.1273 16.6695 37.6725 16.7092C37.6122 16.716 37.5515 16.7194 37.4909 16.7194C36.6231 16.7187 36.1001 15.9928 36.2931 14.9917ZM53.4 15.9061C53.2183 15.7835 53.0586 15.6311 52.9276 15.4553C52.7302 15.2178 52.6749 14.9784 52.8097 14.6486C53.4088 13.1834 53.6189 11.6293 53.7455 10.0657C53.8212 9.12922 53.9025 8.1854 53.866 7.24939C53.7978 5.50314 53.6454 3.76029 53.5288 2.01589C53.5247 1.95401 53.5283 1.89167 53.5283 1.77373C53.7204 1.78372 53.9116 1.80669 54.1006 1.84248C54.8156 2.02726 55.4121 2.42163 55.938 2.92807C56.157 3.13906 56.2838 3.3547 56.2099 3.71086C56.1485 4.00732 56.3132 4.34337 56.2963 4.65762C56.2275 5.92875 56.1638 7.20221 56.0299 8.46739C55.8436 10.2291 55.5961 11.9843 55.3739 13.7422C55.3594 13.8567 55.3316 13.9695 55.3181 14.0841C55.2408 14.7415 55.3872 14.8856 56.0754 14.8332C56.8329 14.7756 57.5285 14.5177 58.1828 14.1503C59.1908 13.5843 60.1847 12.993 61.1962 12.4332C61.4144 12.3126 61.6776 12.2601 61.927 12.2125C62.4626 12.1105 62.5999 12.2209 62.6438 12.7616C62.6884 13.3098 62.4624 13.7621 62.127 14.1735C61.545 14.8873 60.7425 15.2782 59.9235 15.6163C59.0953 15.9578 58.2581 16.333 57.3876 16.504C56.9679 16.5879 56.541 16.631 56.113 16.6325C55.1596 16.6405 54.2219 16.3895 53.4 15.9061ZM28.6126 16.5439C27.9579 16.4936 27.5143 16.0826 27.1972 15.53C26.6036 14.4963 26.4896 13.3566 26.5475 12.2061C26.645 10.1917 27.2969 8.24336 28.4313 6.57596C28.9686 5.775 29.622 5.08657 30.575 4.76946C31.763 4.37416 32.7804 4.81331 33.3798 6.00695C33.8799 7.00266 34.0485 8.07541 34.0295 9.68547C33.9379 11.0142 33.6538 12.8143 32.7732 14.4462C31.9354 15.9987 30.6934 16.5655 29.1506 16.5655C28.975 16.5653 28.7956 16.5581 28.6125 16.5439H28.6126ZM30.6086 6.92045C30.2992 7.05023 30.0501 7.33539 29.7896 7.56781C29.0078 8.2656 28.632 9.18351 28.4196 10.1798C28.2588 10.9342 28.227 11.6948 28.5931 12.3992C28.7213 12.6476 28.9257 12.8485 29.1763 12.9724C30.105 13.3705 31.0635 13.0729 31.5894 12.2047C32.1609 11.2585 32.499 10.1898 32.5755 9.08699C32.4595 8.59199 32.3962 8.07673 32.2152 7.60679C32.0178 7.09455 31.6112 6.8083 31.1364 6.8083C30.9548 6.81018 30.7753 6.84831 30.6086 6.92045ZM43.8635 14.8522C43.3201 13.7493 43.1729 12.5663 43.2495 11.3613C43.3329 9.97309 43.6987 8.61647 44.3246 7.37453C45.0284 5.98135 46.0749 4.92407 47.5631 4.38908C48.5005 4.05195 49.4541 4.00105 50.3179 4.63782C51.6805 5.64204 52.2571 8.66144 50.376 9.83319C49.4437 10.4072 48.3994 10.7749 47.3132 10.9117C46.9445 10.9615 46.5726 10.9878 46.202 11.0248C45.2922 11.0226 45.2802 11.0203 45.1053 11.9468C45.0398 12.256 45.0387 12.5753 45.1019 12.885C45.1651 13.1946 45.2912 13.4879 45.4726 13.7468C45.8507 14.2925 46.4601 14.4407 47.0126 14.0789C47.2981 13.892 47.5274 13.6209 47.791 13.3983C48.0927 13.1438 48.3866 12.8729 48.7179 12.6619C49.0041 12.4791 49.3452 12.4751 49.6169 12.7138C49.7498 12.8277 49.8474 12.977 49.8983 13.1444C49.9492 13.3118 49.9513 13.4903 49.9044 13.6588C49.6661 14.6298 49.0348 15.3353 48.1965 15.7955C47.6486 16.0963 47.0043 16.2701 46.3819 16.375C46.2616 16.3955 46.1398 16.4058 46.0178 16.406C45.118 16.4064 44.3436 15.827 43.8635 14.8522ZM48.3985 5.55782C47.7379 5.66316 47.2333 5.97678 46.7795 6.48934C46.1948 7.14969 45.8127 7.87015 45.6822 8.73314C45.6003 9.27578 45.7876 9.49884 46.3374 9.52011C46.4148 9.5232 46.4921 9.52057 46.5695 9.52057C47.4466 9.48951 48.3017 9.23793 49.0559 8.78906C49.5405 8.49516 49.9236 8.10945 50.0761 7.53734C50.3401 6.54588 49.991 5.52479 48.7922 5.52479C48.6603 5.52541 48.5286 5.53645 48.3985 5.55782Z" fill="#F9FAFB"/>
  <path d="M39.9862 56.6624C40.1048 56.4121 40.2234 56.1618 40.3748 55.8426C40.1216 55.4201 39.903 54.8861 40.3006 54.3076C40.3152 54.2865 40.321 54.2535 40.3403 54.2424C41.012 53.8533 41.2264 53.131 41.6087 52.5277C41.9097 52.053 42.3817 51.7991 42.9214 51.6453C43.125 51.5882 43.3072 51.4725 43.4456 51.3127C43.758 50.919 44.1211 50.6666 44.6335 50.6089C44.896 50.5679 45.1515 50.4903 45.3924 50.3784C46.2697 50.0113 47.1668 50.041 48.0775 50.2027C48.2369 50.2309 48.4001 50.2296 48.559 50.1989C49.4527 50.0191 50.2589 50.243 51.0287 50.6882C51.1936 50.7809 51.3732 50.8446 51.5596 50.8765C52.2162 50.9926 52.7171 51.39 53.1554 51.8335C53.7278 52.4127 54.1495 53.0959 54.2905 53.9338C54.4811 55.0668 54.0962 56.0128 53.3838 56.8436C52.9975 57.2939 52.5478 57.6919 52.1106 58.096C51.4223 58.7321 51.2769 59.6555 51.7812 60.4847C51.4228 60.5202 51.0881 60.5575 50.7526 60.5857C49.4937 60.6919 48.2347 60.7965 46.9756 60.8995C46.9243 60.9007 46.8733 60.9068 46.8232 60.9178C46.1603 61.1068 45.9909 61.0203 46.146 60.3724C46.304 59.7124 45.9455 59.4331 45.5266 59.1322C45.1755 58.8799 44.8092 58.8222 44.351 58.8485C43.5023 58.8892 42.6516 58.8412 41.8129 58.705C41.4533 58.6495 41.1264 58.3291 40.8041 58.1017C40.5174 57.8995 40.2575 57.6594 39.9858 57.436L39.9862 56.6624ZM51.5367 51.4712C51.1762 52.3771 50.7143 53.1622 50.7 54.1225C50.6938 54.5401 50.4938 54.9655 50.3339 55.3682C50.149 55.8469 49.9296 56.3115 49.6774 56.7584C49.455 57.1289 49.1967 57.4766 48.9063 57.7965C48.7658 57.9562 48.5273 58.0799 48.3421 57.8308C48.172 57.6015 48.3359 57.4569 48.4976 57.2789C49.3011 56.3943 49.7576 55.2932 50.0135 54.1742C50.2061 53.3332 50.3384 52.4889 50.7276 51.7132C50.8745 51.4209 50.8382 51.2147 50.5333 51.1091C50.1472 50.9753 49.7553 50.8222 49.3544 50.7751C48.6442 50.6915 48.5975 50.7687 48.6996 51.4652C48.7073 51.5162 48.7036 51.5693 48.7159 51.6188C48.9016 52.3613 49.0969 53.1019 49.2667 53.8482C49.2951 53.973 49.2562 54.1847 49.1705 54.2441C49.0806 54.3066 48.8313 54.288 48.7677 54.2101C48.6115 54.0257 48.5003 53.8074 48.4428 53.5727C48.2721 52.7551 48.1424 51.929 47.9861 51.1083C47.9649 50.9974 47.8984 50.8236 47.8227 50.8056C47.0251 50.6163 46.2449 50.6432 45.4957 51.0322C45.3041 51.1317 45.0703 51.146 44.8645 51.223C44.5984 51.3227 44.3167 51.4107 44.0876 51.5698C43.8865 51.7095 43.871 51.9333 44.0936 52.1189C44.5752 52.5211 45.01 53.0018 45.5436 53.314C46.1356 53.6561 46.634 54.1389 46.9948 54.7197C47.3163 55.2301 47.5949 55.7674 47.9014 56.2876C48.0284 56.503 48.0844 56.7104 47.8253 56.845C47.5932 56.9655 47.4442 56.8268 47.3333 56.6184C47.1279 56.232 46.9428 55.8288 46.6898 55.4752C46.3489 54.9986 46.0301 54.4418 45.5606 54.1357C44.7981 53.6384 44.0735 53.1282 43.4835 52.4322C43.4032 52.3369 43.2908 52.2743 43.1676 52.256C42.6668 52.226 42.0127 52.8258 41.9605 53.3297C41.9398 53.5294 41.9979 53.6159 42.212 53.6741C42.629 53.788 43.0628 53.9062 43.4254 54.1278C43.6442 54.2618 43.7678 54.5833 43.8774 54.8444C43.91 54.9223 43.7639 55.1675 43.6753 55.1814C43.5533 55.2007 43.3901 55.0948 43.2787 55.0016C43.1885 54.9262 43.1756 54.7489 43.0821 54.688C42.4827 54.2978 41.8329 54.1248 41.1441 54.4096C41.0037 54.4677 40.859 54.6838 40.842 54.8408C40.7922 55.3006 41.228 55.695 41.6824 55.7575C42.3687 55.8451 43.0484 55.978 43.7171 56.1553C43.9551 56.221 44.1676 56.4787 44.3225 56.6977C44.3851 56.7863 44.2625 57.006 44.2241 57.166C44.0662 57.129 43.912 57.0775 43.7636 57.012C43.6232 56.9358 43.5207 56.7464 43.3807 56.7205C42.6759 56.5904 41.9665 56.4724 41.2537 56.4111C41.0995 56.398 40.8257 56.6122 40.7864 56.7675C40.7495 56.9129 40.9352 57.1294 41.0522 57.2934C41.1219 57.3906 41.2451 57.451 41.3489 57.5213C41.5838 57.6805 41.8017 57.9077 42.0617 57.9791C42.9718 58.2293 43.9025 58.106 44.8274 58.048C44.9778 58.0303 45.1302 58.0538 45.2682 58.116C45.9765 58.516 46.6509 58.9618 47.1805 59.5992C47.2326 59.6576 47.2957 59.7052 47.3662 59.7391C47.4368 59.773 47.5133 59.7926 47.5915 59.7968C48.3768 59.7777 49.1615 59.7314 49.9458 59.682C50.0539 59.6764 50.1554 59.628 50.228 59.5476C50.6471 58.9336 51.0473 58.3068 51.4619 57.6896C51.5443 57.5759 51.6423 57.4744 51.7531 57.388C52.0399 57.1495 52.3524 56.9394 52.6222 56.6832C53.421 55.9258 53.9325 55.0276 53.6539 53.8932C53.3774 52.7672 52.6376 51.9953 51.5367 51.4712Z" fill="#F9FAFB"/>
  <path d="M51.5367 51.4712C52.6376 51.9954 53.3774 52.7672 53.654 53.8938C53.9324 55.0281 53.4211 55.9264 52.6223 56.6838C52.3525 56.9397 52.04 57.15 51.7531 57.3886C51.6424 57.4749 51.5444 57.5765 51.4619 57.6902C51.0474 58.3074 50.6471 58.9342 50.2281 59.5482C50.1555 59.6286 50.054 59.6769 49.9459 59.6826C49.1617 59.732 48.3769 59.7782 47.5915 59.7974C47.5134 59.7932 47.4368 59.7736 47.3663 59.7397C47.2958 59.7057 47.2326 59.6582 47.1805 59.5998C46.651 58.9624 45.9765 58.5166 45.2683 58.1166C45.1302 58.0544 44.9778 58.0309 44.8275 58.0486C43.9023 58.1066 42.9718 58.2299 42.0618 57.9797C41.8018 57.9082 41.5839 57.6811 41.349 57.5219C41.2452 57.4516 41.1216 57.3912 41.0523 57.294C40.9352 57.1297 40.7496 56.9133 40.7865 56.768C40.8258 56.613 41.0996 56.3986 41.2538 56.4117C41.9668 56.4727 42.6762 56.5906 43.3808 56.7211C43.5208 56.747 43.6233 56.9364 43.7637 57.0126C43.9121 57.078 44.0663 57.1296 44.2242 57.1666C44.2628 57.0066 44.3852 56.7869 44.3226 56.6983C44.1679 56.4793 43.9552 56.2216 43.7172 56.1559C43.0485 55.9786 42.3688 55.8457 41.6825 55.7581C41.2281 55.6956 40.7923 55.3012 40.8421 54.8414C40.8591 54.6844 41.0038 54.4683 41.1442 54.4102C41.833 54.1255 42.4828 54.2985 43.0822 54.6886C43.1757 54.7495 43.1886 54.9267 43.2788 55.0022C43.3902 55.095 43.5534 55.2012 43.6754 55.182C43.764 55.168 43.9101 54.9229 43.8774 54.845C43.7679 54.5839 43.6443 54.2624 43.4255 54.1284C43.0631 53.9066 42.6288 53.7886 42.2121 53.6747C41.998 53.6163 41.9399 53.53 41.9606 53.3303C42.0128 52.8264 42.6669 52.2266 43.1677 52.2566C43.2909 52.2749 43.4033 52.3375 43.4836 52.4327C44.0736 53.1288 44.7985 53.6393 45.5607 54.1363C46.03 54.4424 46.3487 54.9991 46.6899 55.4758C46.9429 55.8294 47.1279 56.2326 47.3334 56.6189C47.4443 56.8278 47.5936 56.966 47.8254 56.8456C48.0845 56.711 48.0285 56.5036 47.9015 56.2881C47.5949 55.768 47.3164 55.2307 46.9948 54.7202C46.6341 54.1395 46.1356 53.6566 45.5436 53.3146C45.01 53.0024 44.5753 52.5218 44.0937 52.1195C43.8714 51.9339 43.8863 51.7102 44.0877 51.5704C44.3168 51.4113 44.5981 51.3229 44.8646 51.2236C45.0702 51.1463 45.3042 51.1323 45.4958 51.0327C46.245 50.6434 47.0252 50.6169 47.8228 50.8062C47.8984 50.8242 47.965 50.998 47.9861 51.1089C48.1425 51.9296 48.2723 52.7557 48.4429 53.5732C48.5004 53.808 48.6116 54.0262 48.7678 54.2107C48.8314 54.2886 49.0807 54.3072 49.1706 54.2447C49.2563 54.1853 49.2952 53.9736 49.2668 53.8488C49.0966 53.1025 48.9014 52.3621 48.716 51.6194C48.7037 51.5699 48.7071 51.5168 48.6996 51.4658C48.5975 50.7692 48.6443 50.6924 49.3545 50.7757C49.7554 50.8228 50.1473 50.9759 50.5334 51.1097C50.8383 51.2153 50.8744 51.4215 50.7277 51.7138C50.3382 52.4895 50.2062 53.3338 50.0136 54.1747C49.7574 55.2937 49.3009 56.3949 48.4977 57.2794C48.336 57.4573 48.1718 57.602 48.3422 57.8314C48.5274 58.0805 48.7659 57.9568 48.9064 57.7971C49.1968 57.4771 49.455 57.1294 49.6775 56.759C49.9297 56.3121 50.1491 55.8475 50.334 55.3688C50.4938 54.966 50.6939 54.5412 50.7001 54.1231C50.7142 53.1622 51.1761 52.3771 51.5367 51.4712Z" fill="#F9FAFB"/>
  <path d="M66.5512 54.0951C65.7022 54.0892 64.8666 54.1046 64.0415 53.8179C62.763 53.3735 61.7134 52.6036 60.8616 51.5898C60.2377 50.8479 59.767 49.9887 59.6268 48.9967C59.5482 48.4408 59.487 47.8825 59.418 47.3252C59.3939 46.2876 59.5952 45.2923 59.8795 44.3149C60.3126 42.8251 61.0152 41.4884 62.2323 40.4779C63.6461 39.3042 65.2135 38.4782 67.0984 38.4241C67.4074 38.4205 67.7156 38.4542 68.0164 38.5246C68.7581 38.6871 68.8464 38.9391 68.4977 39.6057C68.2526 40.0545 68.0518 40.5262 67.8983 41.0141C67.4449 42.5578 67.9447 43.8743 69.2744 44.7614C70.5772 45.6303 71.4942 46.7903 71.8329 48.3338C72.1176 49.6324 72.1047 50.9162 71.2693 52.055C71.1231 52.2507 70.9519 52.4265 70.76 52.5777C69.5419 53.5475 68.1734 54.095 66.5977 54.095L66.5512 54.0951ZM66.7007 38.8991C66.1142 38.971 65.5045 39.0163 64.9574 39.2167C63.5674 39.7259 62.5016 40.7002 61.5782 41.8277C60.9429 42.6035 60.565 43.5259 60.3056 44.4791C59.8028 46.3282 59.9823 48.1406 60.7566 49.8908C61.0993 50.6652 61.6727 51.2337 62.3122 51.7905C63.1543 52.5212 64.1697 53.0236 65.2615 53.2498C66.7737 53.5816 68.2491 53.4354 69.6391 52.6995C70.533 52.2264 71.2307 51.5898 71.4676 50.5546C71.6661 49.6866 71.7168 48.8221 71.3242 47.9962C70.7596 46.8079 69.829 46.0067 68.6361 45.467C67.1872 44.8116 65.3522 45.2028 64.6065 46.6898C64.063 47.7732 64.1509 48.6783 64.882 49.5072C65.493 50.2002 66.3491 50.4663 67.2592 50.2022C68.0069 49.985 68.6282 49.3657 68.534 48.469C68.5254 48.3179 68.5246 48.1666 68.5318 48.0155L68.6251 47.9602C68.6943 48.0308 68.8121 48.0935 68.825 48.1732C68.9178 48.7455 68.8637 49.3544 68.5156 49.7803C68.2294 50.1311 67.7245 50.3405 67.2776 50.5099C67.0099 50.6113 66.8869 50.6612 66.8793 50.9769C66.8588 51.8169 66.2727 52.2675 65.506 52.136C65.7939 52.0212 66.1668 51.9451 66.4472 51.7416C66.784 51.4971 66.7731 51.0796 66.7318 50.6647C64.7724 50.5012 63.8872 49.3555 63.8821 47.4532C63.6391 47.4532 63.4694 47.4764 63.3086 47.4488C62.8505 47.3696 62.3408 47.4003 62.0439 46.9325C62.5411 47.2365 63.1023 47.2948 63.6645 47.3656C63.9214 47.398 64.0232 47.3298 64.0917 47.0724C64.2019 46.6587 64.3684 46.2644 64.7083 45.9635C64.9945 45.71 65.2534 45.425 65.471 45.2073C65.0468 44.9282 64.6167 44.747 64.3301 44.4343C63.8073 43.8639 63.5366 42.0349 63.765 41.3013C63.8252 41.9213 63.8551 42.5763 63.9601 43.2194C64.0818 43.9643 64.3407 44.6622 65.1863 44.8668C65.8531 45.0279 66.5213 44.9202 67.2386 44.7097C67.0852 44.5067 66.8701 44.3815 66.7033 44.2093C66.4746 43.9899 66.2765 43.7406 66.1144 43.4683C65.8029 42.8925 66.0111 42.297 66.214 41.7573C66.4878 41.0288 66.8755 40.3437 67.1989 39.633C67.3683 39.261 67.1535 38.8948 66.7758 38.8948C66.7507 38.8947 66.7256 38.8961 66.7007 38.8991ZM62.5175 50.8948C62.8179 50.8611 63.1181 50.8246 63.4188 50.7943C64.1647 50.7182 64.327 50.5786 64.4805 49.873C64.5227 49.9584 64.5451 50.0524 64.5458 50.1477C64.5465 50.2431 64.5256 50.3373 64.4846 50.4234C64.4436 50.5095 64.3835 50.5852 64.3091 50.6447C64.2346 50.7042 64.1475 50.746 64.0545 50.7671C63.5588 50.8919 63.0398 50.924 62.5309 50.9964L62.5175 50.8948ZM62.0247 46.9209L62.0324 46.9142L62.0247 46.9209L62.0195 46.9033L62.0322 46.9141C62.036 46.9204 62.0399 46.9266 62.0436 46.9326L62.0247 46.9209ZM61.4992 45.1397C61.6734 45.7299 61.8468 46.3178 62.0195 46.9031C61.4568 46.417 61.5406 45.7619 61.4994 45.1397H61.4992Z" fill="#F9FAFB"/>
  <path d="M62.0325 46.9141C62.3277 47.4014 62.8446 47.3686 63.3087 47.4489C63.4695 47.4768 63.6392 47.4533 63.8822 47.4533C63.8872 49.356 64.7725 50.5014 66.7319 50.6649C66.7732 51.0797 66.7841 51.4972 66.4473 51.7417C66.1669 51.9452 65.7939 52.0212 65.5061 52.1362C66.2727 52.2676 66.859 51.8169 66.8792 50.977C66.887 50.6614 67.0098 50.6114 67.2775 50.51C67.7243 50.3406 68.2288 50.131 68.5155 49.7804C68.8635 49.3545 68.9177 48.7456 68.8249 48.1733C68.8119 48.0937 68.6942 48.0309 68.625 47.9603L68.5317 48.0156C68.5245 48.1667 68.5253 48.3181 68.5339 48.4691C68.6279 49.3658 68.0068 49.985 67.2591 50.2023C66.349 50.4667 65.4932 50.2003 64.8819 49.5073C64.1508 48.6785 64.0628 47.7732 64.6064 46.6899C65.3524 45.2029 67.1874 44.8117 68.636 45.4672C69.8289 46.0068 70.7596 46.8081 71.3241 47.9963C71.7167 48.8225 71.666 49.6867 71.4674 50.5547C71.2306 51.5899 70.5329 52.2265 69.639 52.6995C68.2489 53.4351 66.7735 53.5817 65.2614 53.2498C64.1696 53.0237 63.1542 52.5212 62.3122 51.7905C61.6726 51.2336 61.0992 50.6652 60.7566 49.8908C59.9822 48.1407 59.8024 46.3282 60.3055 44.4791C60.5648 43.5259 60.9428 42.6035 61.5781 41.8277C62.5015 40.7002 63.5673 39.7259 64.9572 39.2168C65.5044 39.0164 66.1141 38.971 66.7006 38.8992C67.1241 38.8474 67.379 39.2368 67.1987 39.6328C66.8753 40.3435 66.4872 41.0285 66.2138 41.757C66.0109 42.2968 65.8027 42.8923 66.1142 43.468C66.2763 43.7404 66.4744 43.9897 66.7031 44.2091C66.8698 44.3813 67.085 44.5065 67.2384 44.7095C66.5211 44.92 65.8529 45.0277 65.1861 44.8666C64.3406 44.6623 64.0816 43.9645 63.96 43.2192C63.855 42.5765 63.8251 41.9214 63.7648 41.3011C63.5365 42.0348 63.8071 43.8637 64.33 44.4342C64.6162 44.7469 65.0467 44.928 65.4709 45.2071C65.2533 45.4248 64.9947 45.7099 64.7082 45.9633C64.3679 46.2642 64.2018 46.6585 64.0915 47.0723C64.023 47.3296 63.9214 47.3978 63.6643 47.3654C63.0949 47.2936 62.5266 47.2346 62.0246 46.9203L61.4992 45.1392C61.541 45.7664 61.4557 46.4266 62.0325 46.9141ZM62.5178 50.8947L62.5311 50.9958C63.0401 50.9235 63.5591 50.8913 64.0548 50.7665C64.1478 50.7455 64.2348 50.7036 64.3093 50.6441C64.3838 50.5846 64.4438 50.509 64.4848 50.4229C64.5258 50.3368 64.5467 50.2426 64.546 50.1472C64.5453 50.0519 64.523 49.9579 64.4807 49.8725C64.3273 50.5781 64.1649 50.7177 63.419 50.7938C63.1184 50.8245 62.8184 50.8609 62.5178 50.8947Z" fill="#F9FAFB"/>
  <path d="M41.2455 50.2562C40.2265 50.9832 39.0554 51.1147 37.8549 51.1037C36.2969 51.0892 34.7393 51.0531 33.1812 51.0315C32.9883 51.0281 32.7955 51.0427 32.6052 51.0749C31.7349 51.2261 31.4801 51.9298 32.0169 52.6565C32.6572 53.5232 33.31 54.3819 33.9157 55.2724C34.8164 56.5965 35.7014 57.9362 36.2789 59.4417C36.4268 59.8271 36.4645 60.258 36.5264 60.6719C36.5709 60.969 36.4087 61.1094 36.1101 61.1437C35.5625 61.2134 35.0074 61.0987 34.5323 60.8177C34.1194 60.5891 33.7217 60.3341 33.3417 60.0542C33.1722 59.9232 33.0981 59.6715 32.9737 59.479C32.0555 58.0585 31.1508 56.6288 30.2095 55.2236C29.7618 54.5552 29.2756 53.901 28.5291 53.5175C28.283 53.391 28.0792 53.4286 27.8175 53.5699C26.6538 54.1982 26.0221 55.2852 25.3565 56.34C24.6247 57.4996 23.9531 58.6977 23.2051 59.8465C22.76 60.5301 22.3085 61.2534 21.5445 61.6279C21.2472 61.7737 20.8543 61.7553 20.5064 61.7475C20.4071 61.7453 20.2375 61.5228 20.2284 61.3923C20.156 60.3498 20.3689 59.3412 20.6565 58.3469C21.1549 56.6235 21.6633 54.9029 22.1586 53.1785C22.2321 52.9228 22.2336 52.6462 22.3095 52.3915C22.4255 52.0022 22.2244 51.8016 21.9146 51.6757C20.5445 51.1188 19.1634 50.5885 17.799 50.0183C16.3853 49.4274 14.9744 48.8264 13.5881 48.1751C13.1859 47.9862 12.8279 47.648 12.528 47.3089C12.1164 46.8434 12.2432 46.4442 12.8248 46.2506C13.1158 46.1541 13.4189 46.0987 13.7253 46.0858C15.4003 46.0192 17.0561 46.2173 18.7114 46.4517C20.3201 46.6798 21.9341 46.8678 23.5472 47.0621C23.7577 47.0875 23.9763 47.0456 24.2293 47.0329C24.3299 46.3612 24.4085 45.6517 24.5453 44.9535C24.8491 43.4047 24.9743 41.8159 25.5544 40.3276C25.8343 39.6097 26.1892 38.9389 26.7823 38.4224H27.3237C27.7121 38.73 27.9872 39.158 28.1058 39.639C28.4627 40.9728 28.4621 42.3239 28.3465 43.6846C28.3317 43.8593 28.3122 44.0641 28.3844 44.2106C28.8363 45.1272 29.2311 46.1055 30.3595 46.4219C30.4094 46.4368 30.4546 46.4642 30.4909 46.5015C30.8813 46.908 31.4043 47.0143 31.9206 47.0767C33.1902 47.23 34.4687 47.3129 35.7361 47.4811C36.9694 47.6448 38.1676 47.9825 39.2334 48.6418C39.9362 49.0765 40.5772 49.6111 41.2458 50.101L41.2455 50.2562ZM19.3956 49.0174C19.2187 49.0174 19.1288 48.9918 19.0675 49.0229C18.9492 49.0828 18.8145 49.1559 18.7534 49.2619C18.7269 49.3079 18.8444 49.4818 18.9339 49.5404C19.1314 49.6697 19.3535 49.7609 19.564 49.8709C19.8384 50.0142 19.9912 49.8756 20.0946 49.6393C20.209 49.378 20.1318 49.1878 19.8538 49.1088C19.7027 49.0705 19.5498 49.04 19.3956 49.0174ZM37.8334 49.6342C37.5056 49.3871 37.2245 49.1255 36.8944 48.9641C36.8182 48.9268 36.5741 49.2327 36.4109 49.3774C36.8908 49.9584 37.2454 50.0325 37.8334 49.6342ZM15.7829 48.6751L15.8808 48.5668C15.8064 47.9919 15.2707 47.9197 14.8561 47.7393C14.6449 47.6474 14.372 47.4545 14.1319 47.8465L15.7829 48.6751ZM16.9681 48.0418L17.0523 47.9306C16.9441 47.253 16.2969 47.2697 15.8267 47.0615C15.6389 46.9785 15.4428 46.9157 15.3121 47.2321L16.9681 48.0418ZM24.4016 53.2908C23.9075 53.8412 23.8438 54.5425 23.6629 55.1866H24.3035C24.2068 55.0682 24.1196 54.9424 24.0425 54.8105C23.9874 54.6927 23.9196 54.5435 23.9511 54.4355C23.973 54.3604 24.1496 54.3056 24.264 54.2885C24.4175 54.2744 24.5718 54.2723 24.7256 54.2823C24.6082 53.922 24.51 53.6211 24.4017 53.2907L24.4016 53.2908ZM21.9775 59.8934C21.7659 59.7896 21.6463 59.6769 21.5571 59.6976C21.332 59.7494 21.0707 59.8119 20.9209 59.9651C20.8146 60.0733 21.2094 60.607 21.3159 60.5352C21.5354 60.387 21.7055 60.1662 21.9777 59.8933L21.9775 59.8934ZM27.1943 46.2766C27.3842 46.6637 27.5301 46.9611 27.676 47.2588L27.8097 47.2258C27.8539 47.0993 27.9551 46.9613 27.9322 46.8483C27.841 46.3976 27.492 46.1594 27.1111 45.9575C27.0492 46.0817 26.9847 46.2046 26.9268 46.3305C26.8669 46.461 26.8135 46.5946 26.7573 46.7269L26.8231 46.7609L27.1943 46.2766ZM22.7702 52.7274C22.6446 52.893 22.515 53.064 22.3848 53.2354C23.0479 53.7144 23.2008 53.6763 23.4507 52.99L22.7702 52.7274ZM25.7995 48.5761C25.8724 48.3828 25.9351 48.2161 25.9969 48.0519C25.4601 47.7657 25.1045 47.7378 24.913 47.9823L25.7995 48.5761ZM32.8361 55.825L33.7107 55.719C33.7205 55.6867 33.7302 55.6543 33.7399 55.622L32.7242 55.0238C32.7712 55.3611 32.8 55.5674 32.836 55.8248L32.8361 55.825ZM27.8255 42.3795C28.1148 41.8644 27.9942 41.6197 27.4049 41.4774C27.2807 41.7967 27.4151 42.0973 27.8254 42.3794L27.8255 42.3795ZM28.6007 52.243C28.4052 52.0659 28.2782 51.8979 28.1104 51.8293C28.0573 51.8076 27.8957 52.0512 27.7838 52.1734C27.9532 52.3126 28.1308 52.4416 28.3156 52.5595C28.3355 52.5711 28.4659 52.3946 28.6006 52.2429L28.6007 52.243ZM21.7758 55.7208C21.6409 56.1292 21.5192 56.4975 21.3718 56.9437C22.0041 56.6996 22.1143 56.3034 21.7758 55.7206L21.7758 55.7208ZM25.411 51.5241L24.7487 51.0918L24.6713 51.1377L24.9584 52.0765L25.411 51.5241ZM22.8799 50.5419C22.5457 50.0624 22.3329 49.9887 21.9716 50.2102C22.1923 50.5297 22.4266 50.8581 22.8797 50.5418L22.8799 50.5419ZM30.4514 50.8715C30.394 50.3054 30.2647 50.1549 29.828 50.0837C29.8493 50.2794 29.871 50.4778 29.8948 50.6956L30.4514 50.8715ZM27.212 38.8573L27.0418 38.8985C27.065 39.0782 27.0362 39.2898 27.1229 39.4302C27.2587 39.65 27.4683 39.6281 27.7021 39.3767L27.212 38.8573ZM20.2416 47.778L20.3374 47.6676C20.2392 47.5758 20.1484 47.4177 20.0411 47.4055C19.7849 47.3766 19.4835 47.3088 19.2747 47.6635L20.2416 47.778ZM27.9571 48.6344L27.8379 48.632C27.7934 48.8608 27.7098 49.0924 27.7257 49.3169C27.7311 49.3938 27.9855 49.4531 28.1262 49.5205L28.2106 49.4291C28.1257 49.1641 28.0411 48.8991 27.9569 48.6343L27.9571 48.6344ZM31.1261 52.883L31.2771 52.8353C31.2462 52.6566 31.2703 52.4299 31.1683 52.313C31.0717 52.2021 30.8435 52.2061 30.6726 52.1596L30.6178 52.2974L31.1261 52.883ZM34.6325 48.2264C34.6583 48.1732 34.6843 48.12 34.7104 48.0667L34.379 47.6626L33.9724 47.9572L33.9824 48.0835L34.6325 48.2264ZM22.5753 57.2856C22.467 57.7075 22.7545 57.8433 22.9798 58.1054C23.0386 57.6832 22.9399 57.4412 22.575 57.2855L22.5753 57.2856ZM27.0057 44.2061C26.8802 44.4014 26.7687 44.5749 26.5908 44.8515L27.2471 44.7432L27.0057 44.2061ZM35.511 59.8922L34.8388 59.9281C35.1496 60.3128 35.2621 60.3236 35.5107 59.8921L35.511 59.8922ZM25.9791 49.5918C25.7316 49.3083 25.5459 49.0959 25.3174 48.8338C25.2757 49.3499 25.579 49.4522 25.9791 49.5918Z" fill="#F9FAFB"/>
  <path d="M19.3958 49.0177C19.5501 49.0403 19.7031 49.0708 19.8542 49.1091C20.1321 49.1881 20.2093 49.3784 20.095 49.6396C19.9916 49.8759 19.8388 50.0145 19.5644 49.8712C19.3539 49.7613 19.1318 49.6701 18.9343 49.5407C18.8448 49.4821 18.7273 49.3081 18.7538 49.2623C18.8149 49.1562 18.9496 49.0832 19.0679 49.0232C19.129 48.9921 19.2189 49.0177 19.3958 49.0177Z" fill="#F9FAFB"/>
  <path d="M37.8336 49.6347C37.2458 50.033 36.891 49.9589 36.4111 49.3779C36.5743 49.2332 36.8183 48.9273 36.8946 48.9645C37.2247 49.126 37.5058 49.3878 37.8336 49.6347Z" fill="#F9FAFB"/>
  <path d="M15.7834 48.6749L14.1323 47.8463C14.3721 47.4543 14.6453 47.6472 14.8566 47.7391C15.2711 47.9194 15.8069 47.9916 15.8813 48.5667L15.7834 48.6749Z" fill="#F9FAFB"/>
  <path d="M16.9685 48.0418L15.3125 47.232C15.4432 46.9157 15.6393 46.9784 15.8271 47.0615C16.2973 47.2697 16.9448 47.253 17.0527 47.9306L16.9685 48.0418Z" fill="#F9FAFB"/>
  <path d="M24.4017 53.291C24.51 53.6215 24.6081 53.9224 24.7257 54.2822C24.5719 54.2723 24.4176 54.2744 24.2642 54.2885C24.1497 54.3058 23.9732 54.3606 23.9513 54.4355C23.9198 54.5437 23.9875 54.6927 24.0427 54.8104C24.1197 54.9424 24.207 55.0682 24.3036 55.1865H23.6631C23.844 54.5427 23.9077 53.8414 24.4017 53.291Z" fill="#F9FAFB"/>
  <path d="M21.9779 59.8935C21.7057 60.1663 21.5356 60.3872 21.3163 60.5354C21.2098 60.6073 20.815 60.0738 20.9213 59.9652C21.0711 59.8121 21.3325 59.7495 21.5575 59.6978C21.6467 59.6771 21.7664 59.7896 21.9779 59.8935Z" fill="#F9FAFB"/>
  <path d="M27.1944 46.2765L26.8231 46.7604L26.7573 46.7264C26.8136 46.5941 26.8669 46.4605 26.9269 46.33C26.9847 46.2041 27.0494 46.0812 27.1111 45.957C27.492 46.1589 27.8411 46.3971 27.9322 46.8478C27.9554 46.9608 27.8539 47.0988 27.8097 47.2253L27.6761 47.2583C27.5302 46.9609 27.3843 46.6636 27.1944 46.2765Z" fill="#F9FAFB"/>
  <path d="M22.77 52.7275L23.4506 52.9905C23.2007 53.6768 23.0478 53.7149 22.3848 53.2359C22.5144 53.0641 22.6443 52.8931 22.77 52.7275Z" fill="#F9FAFB"/>
  <path d="M25.7996 48.5763L24.9131 47.9821C25.1046 47.738 25.4601 47.7656 25.997 48.0517C25.9352 48.2163 25.8725 48.383 25.7996 48.5763Z" fill="#F9FAFB"/>
  <path d="M32.836 55.8251C32.8001 55.5677 32.7712 55.3615 32.7241 55.0239L33.7399 55.6222C33.7301 55.6545 33.7204 55.6868 33.7107 55.7192L32.836 55.8251Z" fill="#F9FAFB"/>
  <path d="M27.8253 42.3797C27.4154 42.0976 27.2807 41.797 27.4047 41.4775C27.9941 41.6199 28.1147 41.8646 27.8253 42.3797Z" fill="#F9FAFB"/>
  <path d="M28.6006 52.2432C28.4659 52.3949 28.3355 52.5714 28.3155 52.5597C28.1307 52.4417 27.9531 52.3128 27.7837 52.1736C27.8956 52.0514 28.0572 51.8078 28.1103 51.8295C28.2781 51.898 28.4051 52.066 28.6006 52.2432Z" fill="#F9FAFB"/>
  <path d="M21.7756 55.7207C22.1142 56.3035 22.0042 56.6997 21.3716 56.9436C21.519 56.4975 21.6404 56.1291 21.7756 55.7207Z" fill="#F9FAFB"/>
  <path d="M25.4107 51.5241L24.9585 52.0765L24.6714 51.1377L24.7487 51.0918L25.4107 51.5241Z" fill="#F9FAFB"/>
  <path d="M22.88 50.5418C22.4269 50.8581 22.1926 50.5297 21.9717 50.2102C22.3329 49.9887 22.5458 50.0624 22.88 50.5418Z" fill="#F9FAFB"/>
  <path d="M30.4513 50.8718L29.8945 50.6958C29.8706 50.478 29.849 50.2797 29.8276 50.084C30.2645 50.1551 30.394 50.3056 30.4513 50.8718Z" fill="#F9FAFB"/>
  <path d="M27.212 38.8574L27.7018 39.3769C27.468 39.6283 27.2584 39.6502 27.1226 39.4304C27.0359 39.2899 27.0646 39.0783 27.0415 38.8986L27.212 38.8574Z" fill="#F9FAFB"/>
  <path d="M20.2412 47.7782L19.2744 47.6637C19.4832 47.309 19.7849 47.3768 20.0408 47.4057C20.1481 47.4179 20.2389 47.5759 20.3371 47.6678L20.2412 47.7782Z" fill="#F9FAFB"/>
  <path d="M27.957 48.6346C28.0415 48.8995 28.126 49.1644 28.2105 49.4294L28.1261 49.5208C27.9854 49.4534 27.731 49.3941 27.7256 49.3172C27.7098 49.0929 27.7933 48.8609 27.8378 48.6323L27.957 48.6346Z" fill="#F9FAFB"/>
  <path d="M31.126 52.8835L30.6177 52.298L30.6725 52.1602C30.8431 52.2066 31.0716 52.2027 31.1682 52.3136C31.2701 52.4305 31.2461 52.6572 31.277 52.8358L31.126 52.8835Z" fill="#F9FAFB"/>
  <path d="M34.6323 48.2267L33.9822 48.0841L33.9722 47.9578L34.3788 47.6631L34.7102 48.0671C34.6843 48.1203 34.6583 48.1735 34.6323 48.2267Z" fill="#F9FAFB"/>
  <path d="M22.5752 57.2856C22.9404 57.4413 23.0388 57.6833 22.9797 58.1055C22.7545 57.8434 22.4672 57.7076 22.5752 57.2856Z" fill="#F9FAFB"/>
  <path d="M27.0058 44.2061L27.2472 44.7435L26.5908 44.8518C26.7687 44.5749 26.8802 44.4013 27.0058 44.2061Z" fill="#F9FAFB"/>
  <path d="M35.5106 59.8921C35.2619 60.3233 35.1495 60.3128 34.8384 59.928L35.5106 59.8921Z" fill="#F9FAFB"/>
  <path d="M25.979 49.592C25.5789 49.4527 25.2757 49.35 25.3173 48.834C25.5463 49.096 25.7315 49.3084 25.979 49.592Z" fill="#F9FAFB"/>
</svg>